{
    "patcher": {
        "fileversion": 1,
        "appversion": {
            "major": 9,
            "minor": 1,
            "revision": 2,
            "architecture": "x64",
            "modernui": 1
        },
        "classnamespace": "box",
        "rect": [ 191.0, 87.0, 779.0, 779.0 ],
        "openinpresentation": 1,
        "gridsnaponopen": 2,
        "objectsnaponopen": 0,
        "integercoordinates": 1,
        "boxes": [
            {
                "box": {
                    "comment": "right",
                    "id": "obj-40",
                    "index": 2,
                    "maxclass": "outlet",
                    "numinlets": 1,
                    "numoutlets": 0,
                    "patching_rect": [ 540.0, 825.0, 30.0, 30.0 ]
                }
            },
            {
                "box": {
                    "id": "obj-39",
                    "maxclass": "newobj",
                    "numinlets": 1,
                    "numoutlets": 3,
                    "outlettype": [ "", "int", "int" ],
                    "patching_rect": [ 360.0, 510.0, 61.0, 22.0 ],
                    "text": "change 0."
                }
            },
            {
                "box": {
                    "id": "obj-44",
                    "maxclass": "newobj",
                    "numinlets": 1,
                    "numoutlets": 6,
                    "outlettype": [ "signal", "bang", "int", "float", "", "" ],
                    "patching_rect": [ 465.0, 120.0, 71.5, 22.0 ],
                    "text": "typeroute~"
                }
            },
            {
                "box": {
                    "id": "obj-42",
                    "maxclass": "newobj",
                    "numinlets": 2,
                    "numoutlets": 1,
                    "outlettype": [ "float" ],
                    "patching_rect": [ 360.0, 480.0, 64.0, 22.0 ],
                    "text": "snapshot~"
                }
            },
            {
                "box": {
                    "fontsize": 10.0,
                    "id": "obj-43",
                    "maxclass": "comment",
                    "numinlets": 1,
                    "numoutlets": 0,
                    "patching_rect": [ 780.0, 780.0, 39.0, 18.0 ],
                    "presentation": 1,
                    "presentation_rect": [ 225.0, 0.0, 44.0, 18.0 ],
                    "text": "gain:",
                    "textjustification": 2
                }
            },
            {
                "box": {
                    "bgcolor": [ 0.125, 0.125, 0.125, 0.0 ],
                    "fontsize": 10.0,
                    "format": 6,
                    "id": "obj-41",
                    "maxclass": "flonum",
                    "numinlets": 1,
                    "numoutlets": 2,
                    "outlettype": [ "", "bang" ],
                    "parameter_enable": 0,
                    "patching_rect": [ 780.0, 810.0, 47.0, 20.0 ],
                    "presentation": 1,
                    "presentation_rect": [ 270.0, 0.0, 45.0, 20.0 ],
                    "varname": "gain"
                }
            },
            {
                "box": {
                    "id": "obj-36",
                    "maxclass": "newobj",
                    "numinlets": 1,
                    "numoutlets": 2,
                    "outlettype": [ "signal", "signal" ],
                    "patching_rect": [ 495.0, 765.0, 74.0, 22.0 ],
                    "text": "mc.unpack~"
                }
            },
            {
                "box": {
                    "id": "obj-35",
                    "maxclass": "newobj",
                    "numinlets": 3,
                    "numoutlets": 3,
                    "outlettype": [ "signal", "signal", "signal" ],
                    "patching_rect": [ 495.0, 795.0, 164.0, 22.0 ],
                    "text": "abl.device.limiter~ @ceiling 0"
                }
            },
            {
                "box": {
                    "id": "obj-34",
                    "maxclass": "newobj",
                    "numinlets": 1,
                    "numoutlets": 1,
                    "outlettype": [ "" ],
                    "patching_rect": [ 1035.0, 315.0, 89.0, 22.0 ],
                    "text": "string.tosymbol"
                }
            },
            {
                "box": {
                    "id": "obj-30",
                    "maxclass": "newobj",
                    "numinlets": 2,
                    "numoutlets": 3,
                    "outlettype": [ "", "", "" ],
                    "patching_rect": [ 1035.0, 285.0, 40.0, 22.0 ],
                    "saved_object_attributes": {
                        "parameter_enable": 0,
                        "parameter_mappable": 0
                    },
                    "text": "string",
                    "varname": "file"
                }
            },
            {
                "box": {
                    "bordercolor": [ 0.5, 0.5, 0.5, 0.0 ],
                    "id": "obj-15",
                    "maxclass": "dropfile",
                    "numinlets": 1,
                    "numoutlets": 2,
                    "outlettype": [ "", "" ],
                    "patching_rect": [ 1050.0, 210.0, 255.0, 60.0 ],
                    "presentation": 1,
                    "presentation_rect": [ 45.0, 30.0, 256.0, 60.0 ]
                }
            },
            {
                "box": {
                    "id": "obj-31",
                    "maxclass": "newobj",
                    "numinlets": 1,
                    "numoutlets": 2,
                    "outlettype": [ "bang", "float" ],
                    "patching_rect": [ 375.0, 195.0, 30.0, 22.0 ],
                    "text": "t b f"
                }
            },
            {
                "box": {
                    "id": "obj-26",
                    "maxclass": "button",
                    "numinlets": 1,
                    "numoutlets": 1,
                    "outlettype": [ "bang" ],
                    "parameter_enable": 0,
                    "patching_rect": [ 345.0, 105.0, 24.0, 24.0 ]
                }
            },
            {
                "box": {
                    "id": "obj-29",
                    "maxclass": "newobj",
                    "numinlets": 1,
                    "numoutlets": 2,
                    "outlettype": [ "bang", "" ],
                    "patching_rect": [ 255.0, 315.0, 29.5, 22.0 ],
                    "text": "t b l"
                }
            },
            {
                "box": {
                    "id": "obj-12",
                    "maxclass": "message",
                    "numinlets": 2,
                    "numoutlets": 1,
                    "outlettype": [ "" ],
                    "patching_rect": [ 270.0, 375.0, 73.0, 22.0 ],
                    "text": "duplicate $1"
                }
            },
            {
                "box": {
                    "comment": "grain_mod",
                    "id": "obj-38",
                    "index": 3,
                    "maxclass": "inlet",
                    "numinlets": 0,
                    "numoutlets": 1,
                    "outlettype": [ "" ],
                    "patching_rect": [ 1125.0, 15.0, 30.0, 30.0 ]
                }
            },
            {
                "box": {
                    "id": "obj-32",
                    "maxclass": "newobj",
                    "numinlets": 1,
                    "numoutlets": 2,
                    "outlettype": [ "int", "float" ],
                    "patching_rect": [ 1095.0, 105.0, 30.0, 22.0 ],
                    "text": "t 2 f"
                }
            },
            {
                "box": {
                    "id": "obj-25",
                    "maxclass": "newobj",
                    "numinlets": 2,
                    "numoutlets": 1,
                    "outlettype": [ "float" ],
                    "patching_rect": [ 1035.0, 150.0, 41.0, 22.0 ],
                    "text": "pow 2"
                }
            },
            {
                "box": {
                    "id": "obj-24",
                    "maxclass": "newobj",
                    "numinlets": 2,
                    "numoutlets": 1,
                    "outlettype": [ "float" ],
                    "patching_rect": [ 930.0, 105.0, 30.0, 22.0 ],
                    "text": "* 1."
                }
            },
            {
                "box": {
                    "id": "obj-19",
                    "maxclass": "newobj",
                    "numinlets": 2,
                    "numoutlets": 1,
                    "outlettype": [ "" ],
                    "patching_rect": [ 435.0, 390.0, 32.0, 22.0 ],
                    "text": "gate"
                }
            },
            {
                "box": {
                    "id": "obj-16",
                    "maxclass": "newobj",
                    "numinlets": 2,
                    "numoutlets": 1,
                    "outlettype": [ "float" ],
                    "patching_rect": [ 645.0, 105.0, 30.0, 22.0 ],
                    "text": "f"
                }
            },
            {
                "box": {
                    "comment": "position",
                    "id": "obj-6",
                    "index": 2,
                    "maxclass": "inlet",
                    "numinlets": 0,
                    "numoutlets": 1,
                    "outlettype": [ "" ],
                    "patching_rect": [ 405.0, 30.0, 30.0, 30.0 ]
                }
            },
            {
                "box": {
                    "id": "obj-21",
                    "maxclass": "newobj",
                    "numinlets": 1,
                    "numoutlets": 1,
                    "outlettype": [ "bang" ],
                    "patching_rect": [ 585.0, 180.0, 22.0, 22.0 ],
                    "text": "t b"
                }
            },
            {
                "box": {
                    "id": "obj-11",
                    "maxclass": "newobj",
                    "numinlets": 1,
                    "numoutlets": 1,
                    "outlettype": [ "bang" ],
                    "patching_rect": [ 135.0, 375.0, 58.0, 22.0 ],
                    "text": "loadbang"
                }
            },
            {
                "box": {
                    "id": "obj-5",
                    "maxclass": "newobj",
                    "numinlets": 1,
                    "numoutlets": 4,
                    "outlettype": [ "", "", "", "" ],
                    "patching_rect": [ 180.0, 570.0, 56.0, 22.0 ],
                    "restore": {
                        "enable": [ 1 ],
                        "file": [ "Macintosh HD:/Users/aidanbyrnes/Documents/Max 9/Packages/GeneratingSoundAndOrganizingTime/media/3D/harmonics.wav" ],
                        "gain": [ 0.0 ],
                        "grain_size": [ 100.0 ],
                        "length": [ 100.0 ],
                        "rate": [ 10.0 ],
                        "start": [ 0.0 ]
                    },
                    "text": "autopattr",
                    "varname": "u096009987"
                }
            },
            {
                "box": {
                    "id": "obj-3",
                    "maxclass": "newobj",
                    "numinlets": 1,
                    "numoutlets": 1,
                    "outlettype": [ "" ],
                    "patching_rect": [ 180.0, 540.0, 162.0, 22.0 ],
                    "saved_object_attributes": {
                        "client_rect": [ 100, 159, 454, 287 ],
                        "parameter_enable": 0,
                        "parameter_mappable": 0,
                        "storage_rect": [ 583, 69, 1034, 197 ]
                    },
                    "text": "pattrstorage slecm.granular~",
                    "varname": "slecm.granular~"
                }
            },
            {
                "box": {
                    "comment": "left",
                    "id": "obj-2",
                    "index": 1,
                    "maxclass": "outlet",
                    "numinlets": 1,
                    "numoutlets": 0,
                    "patching_rect": [ 495.0, 825.0, 30.0, 30.0 ]
                }
            },
            {
                "box": {
                    "id": "obj-33",
                    "maxclass": "message",
                    "numinlets": 2,
                    "numoutlets": 1,
                    "outlettype": [ "" ],
                    "patching_rect": [ 165.0, 315.0, 65.0, 22.0 ],
                    "text": "replace $1"
                }
            },
            {
                "box": {
                    "id": "obj-28",
                    "maxclass": "newobj",
                    "numinlets": 3,
                    "numoutlets": 3,
                    "outlettype": [ "", "", "" ],
                    "patching_rect": [ 210.0, 255.0, 106.0, 22.0 ],
                    "text": "route file duplicate"
                }
            },
            {
                "box": {
                    "comment": "",
                    "id": "obj-27",
                    "index": 1,
                    "maxclass": "inlet",
                    "numinlets": 0,
                    "numoutlets": 1,
                    "outlettype": [ "" ],
                    "patching_rect": [ 210.0, 210.0, 30.0, 30.0 ]
                }
            },
            {
                "box": {
                    "fontsize": 10.0,
                    "id": "obj-20",
                    "maxclass": "comment",
                    "numinlets": 1,
                    "numoutlets": 0,
                    "patching_rect": [ 465.0, 285.0, 53.0, 18.0 ],
                    "presentation": 1,
                    "presentation_rect": [ 135.0, 0.0, 45.0, 18.0 ],
                    "text": "rate:",
                    "textjustification": 2
                }
            },
            {
                "box": {
                    "bgcolor": [ 0.125, 0.125, 0.125, 0.0 ],
                    "fontsize": 10.0,
                    "format": 6,
                    "id": "obj-17",
                    "maxclass": "flonum",
                    "numinlets": 1,
                    "numoutlets": 2,
                    "outlettype": [ "", "bang" ],
                    "parameter_enable": 0,
                    "patching_rect": [ 480.0, 315.0, 46.0, 20.0 ],
                    "presentation": 1,
                    "presentation_rect": [ 180.0, 0.0, 46.0, 20.0 ],
                    "varname": "rate"
                }
            },
            {
                "box": {
                    "fontsize": 10.0,
                    "id": "obj-4",
                    "maxclass": "comment",
                    "numinlets": 1,
                    "numoutlets": 0,
                    "patching_rect": [ 930.0, 30.0, 132.0, 18.0 ],
                    "presentation": 1,
                    "presentation_rect": [ 45.0, 0.0, 45.0, 18.0 ],
                    "text": "grain:",
                    "textjustification": 2
                }
            },
            {
                "box": {
                    "id": "obj-161",
                    "maxclass": "newobj",
                    "numinlets": 1,
                    "numoutlets": 2,
                    "outlettype": [ "bang", "float" ],
                    "patching_rect": [ 810.0, 150.0, 29.5, 22.0 ],
                    "text": "t b f"
                }
            },
            {
                "box": {
                    "format": 6,
                    "id": "obj-153",
                    "maxclass": "flonum",
                    "numinlets": 1,
                    "numoutlets": 2,
                    "outlettype": [ "", "bang" ],
                    "parameter_enable": 0,
                    "patching_rect": [ 1035.0, 420.0, 50.0, 22.0 ]
                }
            },
            {
                "box": {
                    "id": "obj-149",
                    "maxclass": "newobj",
                    "numinlets": 2,
                    "numoutlets": 1,
                    "outlettype": [ "" ],
                    "patching_rect": [ 540.0, 285.0, 115.0, 22.0 ],
                    "text": "expr $f1 * 0.01 * $f2"
                }
            },
            {
                "box": {
                    "fontname": "Arial",
                    "fontsize": 10.0,
                    "id": "obj-148",
                    "maxclass": "live.dial",
                    "numinlets": 1,
                    "numoutlets": 2,
                    "outlettype": [ "", "float" ],
                    "parameter_enable": 1,
                    "patching_rect": [ 540.0, 225.0, 45.0, 48.0 ],
                    "presentation": 1,
                    "presentation_rect": [ 0.0, 38.0, 45.0, 48.0 ],
                    "saved_attribute_attributes": {
                        "valueof": {
                            "parameter_initial": [ 100 ],
                            "parameter_initial_enable": 1,
                            "parameter_longname": "length[2]",
                            "parameter_mmax": 100.0,
                            "parameter_modmode": 3,
                            "parameter_shortname": "length",
                            "parameter_type": 0,
                            "parameter_unitstyle": 5
                        }
                    },
                    "varname": "length"
                }
            },
            {
                "box": {
                    "data": {
                        "patcher": {
                            "fileversion": 1,
                            "appversion": {
                                "major": 9,
                                "minor": 1,
                                "revision": 2,
                                "architecture": "x64",
                                "modernui": 1
                            },
                            "classnamespace": "dsp.gen",
                            "rect": [ 59.0, 106.0, 600.0, 450.0 ],
                            "boxes": [
                                {
                                    "box": {
                                        "maxclass": "newobj",
                                        "text": "in 2",
                                        "patching_rect": [ 201.0, 57.0, 28.0, 22.0 ],
                                        "numinlets": 0,
                                        "id": "obj-7",
                                        "numoutlets": 1,
                                        "outlettype": [ "" ]
                                    }
                                },
                                {
                                    "box": {
                                        "maxclass": "newobj",
                                        "text": "expr (in1 + 1) * 0.5",
                                        "patching_rect": [ 221.0, 363.0, 108.0, 22.0 ],
                                        "numinlets": 1,
                                        "id": "obj-23",
                                        "numoutlets": 1,
                                        "outlettype": [ "" ]
                                    }
                                },
                                {
                                    "box": {
                                        "maxclass": "newobj",
                                        "text": "*",
                                        "patching_rect": [ 179.0, 361.0, 29.5, 22.0 ],
                                        "numinlets": 2,
                                        "id": "obj-22",
                                        "numoutlets": 1,
                                        "outlettype": [ "" ]
                                    }
                                },
                                {
                                    "box": {
                                        "maxclass": "newobj",
                                        "text": "* 0.5",
                                        "patching_rect": [ 385.0, 178.0, 33.0, 22.0 ],
                                        "numinlets": 1,
                                        "id": "obj-21",
                                        "numoutlets": 1,
                                        "outlettype": [ "" ]
                                    }
                                },
                                {
                                    "box": {
                                        "maxclass": "newobj",
                                        "text": "delay",
                                        "patching_rect": [ 183.0, 246.0, 37.0, 22.0 ],
                                        "numinlets": 2,
                                        "id": "obj-20",
                                        "numoutlets": 1,
                                        "outlettype": [ "" ]
                                    }
                                },
                                {
                                    "box": {
                                        "maxclass": "newobj",
                                        "text": "* TWOPI",
                                        "patching_rect": [ 260.0, 316.0, 56.0, 22.0 ],
                                        "numinlets": 1,
                                        "id": "obj-14",
                                        "numoutlets": 1,
                                        "outlettype": [ "" ]
                                    }
                                },
                                {
                                    "box": {
                                        "maxclass": "newobj",
                                        "text": "cos",
                                        "patching_rect": [ 260.0, 350.0, 27.0, 22.0 ],
                                        "numinlets": 1,
                                        "id": "obj-13",
                                        "numoutlets": 1,
                                        "outlettype": [ "" ]
                                    }
                                },
                                {
                                    "box": {
                                        "maxclass": "newobj",
                                        "text": "1",
                                        "patching_rect": [ 218.0, 115.0, 19.0, 22.0 ],
                                        "numinlets": 0,
                                        "id": "obj-12",
                                        "numoutlets": 1,
                                        "outlettype": [ "" ]
                                    }
                                },
                                {
                                    "box": {
                                        "maxclass": "newobj",
                                        "text": "/",
                                        "patching_rect": [ 261.0, 276.0, 29.5, 22.0 ],
                                        "numinlets": 2,
                                        "id": "obj-11",
                                        "numoutlets": 1,
                                        "outlettype": [ "" ]
                                    }
                                },
                                {
                                    "box": {
                                        "maxclass": "newobj",
                                        "text": "min",
                                        "patching_rect": [ 260.0, 209.0, 29.5, 22.0 ],
                                        "numinlets": 2,
                                        "id": "obj-10",
                                        "numoutlets": 1,
                                        "outlettype": [ "" ]
                                    }
                                },
                                {
                                    "box": {
                                        "maxclass": "newobj",
                                        "text": "out 2",
                                        "patching_rect": [ 260.0, 418.0, 35.0, 22.0 ],
                                        "numinlets": 1,
                                        "id": "obj-8",
                                        "numoutlets": 0
                                    }
                                },
                                {
                                    "box": {
                                        "maxclass": "newobj",
                                        "text": "accum",
                                        "patching_rect": [ 260.0, 140.0, 44.0, 22.0 ],
                                        "numinlets": 2,
                                        "id": "obj-6",
                                        "numoutlets": 1,
                                        "outlettype": [ "" ]
                                    }
                                },
                                {
                                    "box": {
                                        "maxclass": "newobj",
                                        "text": "mstosamps",
                                        "patching_rect": [ 299.0, 57.0, 70.0, 22.0 ],
                                        "numinlets": 1,
                                        "id": "obj-5",
                                        "numoutlets": 1,
                                        "outlettype": [ "" ]
                                    }
                                },
                                {
                                    "box": {
                                        "maxclass": "newobj",
                                        "text": "param time 10",
                                        "patching_rect": [ 299.0, 23.0, 85.0, 22.0 ],
                                        "numinlets": 0,
                                        "id": "obj-2",
                                        "numoutlets": 1,
                                        "outlettype": [ "" ]
                                    }
                                },
                                {
                                    "box": {
                                        "maxclass": "newobj",
                                        "text": "in 1",
                                        "patching_rect": [ 50.0, 14.0, 28.0, 22.0 ],
                                        "numinlets": 0,
                                        "id": "obj-1",
                                        "numoutlets": 1,
                                        "outlettype": [ "" ]
                                    }
                                },
                                {
                                    "box": {
                                        "maxclass": "newobj",
                                        "text": "+",
                                        "patching_rect": [ 176.0, 149.0, 29.5, 22.0 ],
                                        "numinlets": 2,
                                        "id": "obj-3",
                                        "numoutlets": 1,
                                        "outlettype": [ "" ]
                                    }
                                },
                                {
                                    "box": {
                                        "maxclass": "newobj",
                                        "text": "out 1",
                                        "patching_rect": [ 176.0, 418.0, 35.0, 22.0 ],
                                        "numinlets": 1,
                                        "id": "obj-4",
                                        "numoutlets": 0
                                    }
                                }
                            ],
                            "lines": [
                                {
                                    "patchline": {
                                        "source": [ "obj-23", 0 ],
                                        "destination": [ "obj-8", 0 ],
                                        "order": 0
                                    }
                                },
                                {
                                    "patchline": {
                                        "source": [ "obj-23", 0 ],
                                        "destination": [ "obj-22", 1 ],
                                        "order": 1
                                    }
                                },
                                {
                                    "patchline": {
                                        "source": [ "obj-13", 0 ],
                                        "destination": [ "obj-23", 0 ]
                                    }
                                },
                                {
                                    "patchline": {
                                        "source": [ "obj-22", 0 ],
                                        "destination": [ "obj-4", 0 ]
                                    }
                                },
                                {
                                    "patchline": {
                                        "source": [ "obj-20", 0 ],
                                        "destination": [ "obj-22", 0 ]
                                    }
                                },
                                {
                                    "patchline": {
                                        "source": [ "obj-3", 0 ],
                                        "destination": [ "obj-20", 0 ]
                                    }
                                },
                                {
                                    "patchline": {
                                        "source": [ "obj-21", 0 ],
                                        "destination": [ "obj-20", 1 ]
                                    }
                                },
                                {
                                    "patchline": {
                                        "source": [ "obj-5", 0 ],
                                        "destination": [ "obj-21", 0 ],
                                        "order": 0
                                    }
                                },
                                {
                                    "patchline": {
                                        "source": [ "obj-11", 0 ],
                                        "destination": [ "obj-14", 0 ]
                                    }
                                },
                                {
                                    "patchline": {
                                        "source": [ "obj-14", 0 ],
                                        "destination": [ "obj-13", 0 ]
                                    }
                                },
                                {
                                    "patchline": {
                                        "source": [ "obj-12", 0 ],
                                        "destination": [ "obj-6", 0 ]
                                    }
                                },
                                {
                                    "patchline": {
                                        "source": [ "obj-5", 0 ],
                                        "destination": [ "obj-11", 1 ],
                                        "order": 1
                                    }
                                },
                                {
                                    "patchline": {
                                        "source": [ "obj-10", 0 ],
                                        "destination": [ "obj-11", 0 ]
                                    }
                                },
                                {
                                    "patchline": {
                                        "source": [ "obj-5", 0 ],
                                        "destination": [ "obj-10", 1 ],
                                        "order": 2
                                    }
                                },
                                {
                                    "patchline": {
                                        "source": [ "obj-6", 0 ],
                                        "destination": [ "obj-10", 0 ]
                                    }
                                },
                                {
                                    "patchline": {
                                        "source": [ "obj-2", 0 ],
                                        "destination": [ "obj-5", 0 ]
                                    }
                                },
                                {
                                    "patchline": {
                                        "source": [ "obj-1", 0 ],
                                        "destination": [ "obj-3", 0 ]
                                    }
                                },
                                {
                                    "patchline": {
                                        "source": [ "obj-7", 0 ],
                                        "destination": [ "obj-6", 1 ]
                                    }
                                }
                            ]
                        }
                    },
                    "id": "obj-147",
                    "maxclass": "newobj",
                    "numinlets": 2,
                    "numoutlets": 2,
                    "outlettype": [ "multichannelsignal", "multichannelsignal" ],
                    "patching_rect": [ 495.0, 705.0, 55.0, 22.0 ],
                    "text": "mc.gen~",
                    "wrapper_uniquekey": "u554008238"
                }
            },
            {
                "box": {
                    "id": "obj-134",
                    "maxclass": "newobj",
                    "numinlets": 1,
                    "numoutlets": 3,
                    "outlettype": [ "multichannelsignal", "", "" ],
                    "patching_rect": [ 870.0, 630.0, 60.0, 22.0 ],
                    "text": "mc.what~"
                }
            },
            {
                "box": {
                    "id": "obj-132",
                    "maxclass": "newobj",
                    "numinlets": 0,
                    "numoutlets": 1,
                    "outlettype": [ "" ],
                    "patching_rect": [ 630.0, 180.0, 100.0, 22.0 ],
                    "text": "r #0-audio_dur"
                }
            },
            {
                "box": {
                    "floatoutput": 1,
                    "id": "obj-131",
                    "maxclass": "slider",
                    "numinlets": 1,
                    "numoutlets": 1,
                    "outlettype": [ "" ],
                    "parameter_enable": 0,
                    "patching_rect": [ 600.0, 45.0, 224.0, 22.0 ],
                    "presentation": 1,
                    "presentation_rect": [ 45.0, 90.0, 255.0, 15.0 ],
                    "size": 1.0,
                    "valuepopup": 1,
                    "varname": "start"
                }
            },
            {
                "box": {
                    "id": "obj-129",
                    "linecount": 2,
                    "maxclass": "newobj",
                    "numinlets": 0,
                    "numoutlets": 1,
                    "outlettype": [ "" ],
                    "patching_rect": [ 1200.0, 135.0, 99.0, 35.0 ],
                    "text": "r #0-display_ms"
                }
            },
            {
                "box": {
                    "id": "obj-127",
                    "maxclass": "newobj",
                    "numinlets": 2,
                    "numoutlets": 1,
                    "outlettype": [ "float" ],
                    "patching_rect": [ 765.0, 105.0, 30.0, 22.0 ],
                    "text": "* 1."
                }
            },
            {
                "box": {
                    "id": "obj-124",
                    "maxclass": "newobj",
                    "numinlets": 1,
                    "numoutlets": 0,
                    "patching_rect": [ 705.0, 360.0, 109.0, 22.0 ],
                    "text": "s #0-display_ms"
                }
            },
            {
                "box": {
                    "id": "obj-119",
                    "maxclass": "newobj",
                    "numinlets": 2,
                    "numoutlets": 1,
                    "outlettype": [ "float" ],
                    "patching_rect": [ 870.0, 135.0, 30.0, 22.0 ],
                    "text": "+ 0."
                }
            },
            {
                "box": {
                    "bgcolor": [ 0.125, 0.125, 0.125, 0.0 ],
                    "fontsize": 10.0,
                    "format": 6,
                    "id": "obj-118",
                    "maxclass": "flonum",
                    "numinlets": 1,
                    "numoutlets": 2,
                    "outlettype": [ "", "bang" ],
                    "parameter_enable": 0,
                    "patching_rect": [ 930.0, 60.0, 45.0, 20.0 ],
                    "presentation": 1,
                    "presentation_rect": [ 90.0, 0.0, 46.0, 20.0 ],
                    "varname": "grain_size"
                }
            },
            {
                "box": {
                    "bgcolor": [ 0.125, 0.125, 0.125, 0.0 ],
                    "id": "obj-104",
                    "maxclass": "toggle",
                    "numinlets": 1,
                    "numoutlets": 1,
                    "outlettype": [ "int" ],
                    "parameter_enable": 0,
                    "patching_rect": [ 390.0, 285.0, 24.0, 24.0 ],
                    "presentation": 1,
                    "presentation_rect": [ 0.0, 0.0, 24.0, 24.0 ],
                    "varname": "enable"
                }
            },
            {
                "box": {
                    "id": "obj-102",
                    "maxclass": "newobj",
                    "numinlets": 2,
                    "numoutlets": 1,
                    "outlettype": [ "bang" ],
                    "patching_rect": [ 450.0, 345.0, 113.0, 22.0 ],
                    "text": "qmetro 1 @active 1"
                }
            },
            {
                "box": {
                    "id": "obj-101",
                    "maxclass": "newobj",
                    "numinlets": 2,
                    "numoutlets": 1,
                    "outlettype": [ "multichannelsignal" ],
                    "patching_rect": [ 495.0, 675.0, 40.0, 22.0 ],
                    "text": "mc.*~"
                }
            },
            {
                "box": {
                    "id": "obj-96",
                    "maxclass": "newobj",
                    "numinlets": 3,
                    "numoutlets": 1,
                    "outlettype": [ "multichannelsignal" ],
                    "patching_rect": [ 705.0, 630.0, 137.0, 22.0 ],
                    "text": "mc.wave~ #0-window"
                }
            },
            {
                "box": {
                    "id": "obj-94",
                    "maxclass": "message",
                    "numinlets": 2,
                    "numoutlets": 1,
                    "outlettype": [ "" ],
                    "patching_rect": [ 135.0, 405.0, 111.0, 22.0 ],
                    "text": "fill 1, apply hanning"
                }
            },
            {
                "box": {
                    "id": "obj-91",
                    "maxclass": "newobj",
                    "numinlets": 1,
                    "numoutlets": 2,
                    "outlettype": [ "float", "bang" ],
                    "patching_rect": [ 135.0, 435.0, 194.0, 22.0 ],
                    "text": "buffer~ #0-window @samps 512"
                }
            },
            {
                "box": {
                    "id": "obj-88",
                    "maxclass": "newobj",
                    "numinlets": 2,
                    "numoutlets": 3,
                    "outlettype": [ "multichannelsignal", "", "" ],
                    "patching_rect": [ 705.0, 570.0, 124.0, 22.0 ],
                    "text": "mc.line~ @chans 100"
                }
            },
            {
                "box": {
                    "id": "obj-87",
                    "maxclass": "newobj",
                    "numinlets": 2,
                    "numoutlets": 2,
                    "outlettype": [ "setvalue", "int" ],
                    "patching_rect": [ 705.0, 540.0, 59.0, 22.0 ],
                    "text": "mc.target"
                }
            },
            {
                "box": {
                    "id": "obj-86",
                    "maxclass": "message",
                    "numinlets": 2,
                    "numoutlets": 1,
                    "outlettype": [ "" ],
                    "patching_rect": [ 705.0, 510.0, 45.0, 22.0 ],
                    "text": "0, 1 $1"
                }
            },
            {
                "box": {
                    "id": "obj-81",
                    "maxclass": "newobj",
                    "numinlets": 1,
                    "numoutlets": 2,
                    "outlettype": [ "", "int" ],
                    "patching_rect": [ 495.0, 435.0, 232.0, 22.0 ],
                    "text": "mc.voiceallocator~ @voices 100 @steal 1"
                }
            },
            {
                "box": {
                    "id": "obj-80",
                    "maxclass": "newobj",
                    "numinlets": 1,
                    "numoutlets": 2,
                    "outlettype": [ "", "float" ],
                    "patcher": {
                        "fileversion": 1,
                        "appversion": {
                            "major": 9,
                            "minor": 1,
                            "revision": 2,
                            "architecture": "x64",
                            "modernui": 1
                        },
                        "classnamespace": "box",
                        "rect": [ 59.0, 106.0, 1000.0, 700.0 ],
                        "boxes": [
                            {
                                "box": {
                                    "comment": "",
                                    "id": "obj-1",
                                    "index": 2,
                                    "maxclass": "outlet",
                                    "numinlets": 1,
                                    "numoutlets": 0,
                                    "patching_rect": [ 622.0, 320.0, 30.0, 30.0 ]
                                }
                            },
                            {
                                "box": {
                                    "id": "obj-73",
                                    "maxclass": "newobj",
                                    "numinlets": 1,
                                    "numoutlets": 2,
                                    "outlettype": [ "bang", "bang" ],
                                    "patching_rect": [ 50.0, 100.0, 32.0, 22.0 ],
                                    "text": "t b b"
                                }
                            },
                            {
                                "box": {
                                    "id": "obj-68",
                                    "linecount": 2,
                                    "maxclass": "newobj",
                                    "numinlets": 0,
                                    "numoutlets": 1,
                                    "outlettype": [ "" ],
                                    "patching_rect": [ 487.0, 160.0, 99.0, 22.0 ],
                                    "text": "r #0-audio_dur"
                                }
                            },
                            {
                                "box": {
                                    "id": "obj-66",
                                    "maxclass": "newobj",
                                    "numinlets": 1,
                                    "numoutlets": 2,
                                    "outlettype": [ "float", "float" ],
                                    "patching_rect": [ 337.0, 235.0, 29.5, 22.0 ],
                                    "text": "t f f"
                                }
                            },
                            {
                                "box": {
                                    "id": "obj-65",
                                    "maxclass": "newobj",
                                    "numinlets": 2,
                                    "numoutlets": 1,
                                    "outlettype": [ "float" ],
                                    "patching_rect": [ 112.0, 220.0, 30.0, 22.0 ],
                                    "text": "* 1."
                                }
                            },
                            {
                                "box": {
                                    "id": "obj-64",
                                    "linecount": 2,
                                    "maxclass": "newobj",
                                    "numinlets": 0,
                                    "numoutlets": 1,
                                    "outlettype": [ "" ],
                                    "patching_rect": [ 217.0, 145.0, 101.0, 22.0 ],
                                    "text": "r #0-select_dur"
                                }
                            },
                            {
                                "box": {
                                    "id": "obj-60",
                                    "maxclass": "newobj",
                                    "numinlets": 1,
                                    "numoutlets": 2,
                                    "outlettype": [ "float", "float" ],
                                    "patching_rect": [ 112.0, 250.0, 30.0, 22.0 ],
                                    "text": "t f f"
                                }
                            },
                            {
                                "box": {
                                    "id": "obj-56",
                                    "maxclass": "newobj",
                                    "numinlets": 2,
                                    "numoutlets": 1,
                                    "outlettype": [ "float" ],
                                    "patching_rect": [ 543.0, 272.0, 29.5, 22.0 ],
                                    "text": "!- 0."
                                }
                            },
                            {
                                "box": {
                                    "id": "obj-55",
                                    "maxclass": "newobj",
                                    "numinlets": 2,
                                    "numoutlets": 2,
                                    "outlettype": [ "float", "int" ],
                                    "patching_rect": [ 442.0, 220.0, 71.0, 22.0 ],
                                    "text": "minimum 0."
                                }
                            },
                            {
                                "box": {
                                    "id": "obj-52",
                                    "maxclass": "newobj",
                                    "numinlets": 2,
                                    "numoutlets": 1,
                                    "outlettype": [ "float" ],
                                    "patching_rect": [ 442.0, 160.0, 29.5, 22.0 ],
                                    "text": "+ 0."
                                }
                            },
                            {
                                "box": {
                                    "id": "obj-51",
                                    "maxclass": "newobj",
                                    "numinlets": 2,
                                    "numoutlets": 1,
                                    "outlettype": [ "float" ],
                                    "patching_rect": [ 337.0, 160.0, 29.5, 22.0 ],
                                    "text": "+ 0."
                                }
                            },
                            {
                                "box": {
                                    "id": "obj-48",
                                    "maxclass": "newobj",
                                    "numinlets": 2,
                                    "numoutlets": 1,
                                    "outlettype": [ "float" ],
                                    "patching_rect": [ 112.0, 190.0, 47.0, 22.0 ],
                                    "text": "* 0.001"
                                }
                            },
                            {
                                "box": {
                                    "id": "obj-47",
                                    "maxclass": "newobj",
                                    "numinlets": 2,
                                    "numoutlets": 1,
                                    "outlettype": [ "" ],
                                    "patching_rect": [ 112.0, 160.0, 79.0, 22.0 ],
                                    "text": "random 1000"
                                }
                            },
                            {
                                "box": {
                                    "id": "obj-40",
                                    "maxclass": "message",
                                    "numinlets": 2,
                                    "numoutlets": 1,
                                    "outlettype": [ "" ],
                                    "patching_rect": [ 337.0, 365.0, 59.0, 22.0 ],
                                    "text": "$1, $2 $3"
                                }
                            },
                            {
                                "box": {
                                    "id": "obj-35",
                                    "linecount": 2,
                                    "maxclass": "newobj",
                                    "numinlets": 0,
                                    "numoutlets": 1,
                                    "outlettype": [ "" ],
                                    "patching_rect": [ 442.0, 115.0, 104.0, 22.0 ],
                                    "text": "r #0-select_end"
                                }
                            },
                            {
                                "box": {
                                    "id": "obj-34",
                                    "linecount": 2,
                                    "maxclass": "newobj",
                                    "numinlets": 0,
                                    "numoutlets": 1,
                                    "outlettype": [ "" ],
                                    "patching_rect": [ 337.0, 115.0, 107.0, 22.0 ],
                                    "text": "r #0-select_start"
                                }
                            },
                            {
                                "box": {
                                    "id": "obj-33",
                                    "maxclass": "newobj",
                                    "numinlets": 3,
                                    "numoutlets": 1,
                                    "outlettype": [ "" ],
                                    "patching_rect": [ 337.0, 320.0, 225.0, 22.0 ],
                                    "text": "pack f f f"
                                }
                            },
                            {
                                "box": {
                                    "comment": "",
                                    "id": "obj-78",
                                    "index": 1,
                                    "maxclass": "inlet",
                                    "numinlets": 0,
                                    "numoutlets": 1,
                                    "outlettype": [ "" ],
                                    "patching_rect": [ 50.0, 40.0, 30.0, 30.0 ]
                                }
                            },
                            {
                                "box": {
                                    "comment": "",
                                    "id": "obj-79",
                                    "index": 1,
                                    "maxclass": "outlet",
                                    "numinlets": 1,
                                    "numoutlets": 0,
                                    "patching_rect": [ 337.0, 447.0, 30.0, 30.0 ]
                                }
                            }
                        ],
                        "lines": [
                            {
                                "patchline": {
                                    "destination": [ "obj-40", 0 ],
                                    "source": [ "obj-33", 0 ]
                                }
                            },
                            {
                                "patchline": {
                                    "destination": [ "obj-51", 1 ],
                                    "source": [ "obj-34", 0 ]
                                }
                            },
                            {
                                "patchline": {
                                    "destination": [ "obj-52", 1 ],
                                    "source": [ "obj-35", 0 ]
                                }
                            },
                            {
                                "patchline": {
                                    "destination": [ "obj-79", 0 ],
                                    "source": [ "obj-40", 0 ]
                                }
                            },
                            {
                                "patchline": {
                                    "destination": [ "obj-48", 0 ],
                                    "source": [ "obj-47", 0 ]
                                }
                            },
                            {
                                "patchline": {
                                    "destination": [ "obj-65", 0 ],
                                    "source": [ "obj-48", 0 ]
                                }
                            },
                            {
                                "patchline": {
                                    "destination": [ "obj-66", 0 ],
                                    "source": [ "obj-51", 0 ]
                                }
                            },
                            {
                                "patchline": {
                                    "destination": [ "obj-55", 0 ],
                                    "source": [ "obj-52", 0 ]
                                }
                            },
                            {
                                "patchline": {
                                    "destination": [ "obj-33", 1 ],
                                    "order": 1,
                                    "source": [ "obj-55", 0 ]
                                }
                            },
                            {
                                "patchline": {
                                    "destination": [ "obj-56", 1 ],
                                    "order": 0,
                                    "source": [ "obj-55", 0 ]
                                }
                            },
                            {
                                "patchline": {
                                    "destination": [ "obj-1", 0 ],
                                    "order": 0,
                                    "source": [ "obj-56", 0 ]
                                }
                            },
                            {
                                "patchline": {
                                    "destination": [ "obj-33", 2 ],
                                    "order": 1,
                                    "source": [ "obj-56", 0 ]
                                }
                            },
                            {
                                "patchline": {
                                    "destination": [ "obj-51", 0 ],
                                    "source": [ "obj-60", 0 ]
                                }
                            },
                            {
                                "patchline": {
                                    "destination": [ "obj-52", 0 ],
                                    "source": [ "obj-60", 1 ]
                                }
                            },
                            {
                                "patchline": {
                                    "destination": [ "obj-65", 1 ],
                                    "source": [ "obj-64", 0 ]
                                }
                            },
                            {
                                "patchline": {
                                    "destination": [ "obj-60", 0 ],
                                    "source": [ "obj-65", 0 ]
                                }
                            },
                            {
                                "patchline": {
                                    "destination": [ "obj-33", 0 ],
                                    "source": [ "obj-66", 0 ]
                                }
                            },
                            {
                                "patchline": {
                                    "destination": [ "obj-56", 0 ],
                                    "source": [ "obj-66", 1 ]
                                }
                            },
                            {
                                "patchline": {
                                    "destination": [ "obj-55", 1 ],
                                    "source": [ "obj-68", 0 ]
                                }
                            },
                            {
                                "patchline": {
                                    "destination": [ "obj-47", 0 ],
                                    "source": [ "obj-73", 1 ]
                                }
                            },
                            {
                                "patchline": {
                                    "destination": [ "obj-73", 0 ],
                                    "source": [ "obj-78", 0 ]
                                }
                            }
                        ]
                    },
                    "patching_rect": [ 495.0, 495.0, 59.0, 22.0 ],
                    "text": "p params"
                }
            },
            {
                "box": {
                    "id": "obj-67",
                    "maxclass": "newobj",
                    "numinlets": 2,
                    "numoutlets": 1,
                    "outlettype": [ "float" ],
                    "patching_rect": [ 945.0, 345.0, 30.0, 22.0 ],
                    "text": "!- 0."
                }
            },
            {
                "box": {
                    "id": "obj-63",
                    "maxclass": "newobj",
                    "numinlets": 1,
                    "numoutlets": 0,
                    "patching_rect": [ 945.0, 405.0, 104.0, 22.0 ],
                    "text": "s #0-select_dur"
                }
            },
            {
                "box": {
                    "id": "obj-54",
                    "maxclass": "newobj",
                    "numinlets": 1,
                    "numoutlets": 0,
                    "patching_rect": [ 390.0, 240.0, 102.0, 22.0 ],
                    "text": "s #0-audio_dur"
                }
            },
            {
                "box": {
                    "id": "obj-53",
                    "maxclass": "newobj",
                    "numinlets": 1,
                    "numoutlets": 10,
                    "outlettype": [ "float", "list", "float", "float", "float", "float", "float", "", "int", "" ],
                    "patching_rect": [ 315.0, 165.0, 113.5, 22.0 ],
                    "text": "info~ #0-audio"
                }
            },
            {
                "box": {
                    "id": "obj-23",
                    "maxclass": "newobj",
                    "numinlets": 1,
                    "numoutlets": 0,
                    "patching_rect": [ 855.0, 405.0, 107.0, 22.0 ],
                    "text": "s #0-select_end"
                }
            },
            {
                "box": {
                    "id": "obj-22",
                    "maxclass": "newobj",
                    "numinlets": 1,
                    "numoutlets": 0,
                    "patching_rect": [ 765.0, 420.0, 110.0, 22.0 ],
                    "text": "s #0-select_start"
                }
            },
            {
                "box": {
                    "id": "obj-18",
                    "maxclass": "newobj",
                    "numinlets": 2,
                    "numoutlets": 2,
                    "outlettype": [ "setvalue", "int" ],
                    "patching_rect": [ 495.0, 525.0, 59.0, 22.0 ],
                    "text": "mc.target"
                }
            },
            {
                "box": {
                    "id": "obj-14",
                    "maxclass": "newobj",
                    "numinlets": 2,
                    "numoutlets": 1,
                    "outlettype": [ "multichannelsignal" ],
                    "patching_rect": [ 495.0, 735.0, 140.0, 22.0 ],
                    "text": "mc.stereo~ @autogain 1"
                }
            },
            {
                "box": {
                    "id": "obj-9",
                    "maxclass": "newobj",
                    "numinlets": 1,
                    "numoutlets": 4,
                    "outlettype": [ "multichannelsignal", "multichannelsignal", "", "" ],
                    "patching_rect": [ 495.0, 630.0, 130.0, 22.0 ],
                    "text": "mc.play~ #0-audio 2"
                }
            },
            {
                "box": {
                    "id": "obj-8",
                    "maxclass": "newobj",
                    "numinlets": 2,
                    "numoutlets": 3,
                    "outlettype": [ "multichannelsignal", "", "" ],
                    "patching_rect": [ 495.0, 570.0, 124.0, 22.0 ],
                    "text": "mc.line~ @chans 100"
                }
            },
            {
                "box": {
                    "allowdrag": 0,
                    "buffername": "#0-audio",
                    "id": "obj-7",
                    "ignoreclick": 1,
                    "labels": 0,
                    "maxclass": "waveform~",
                    "numinlets": 5,
                    "numoutlets": 6,
                    "outlettype": [ "float", "float", "float", "float", "list", "" ],
                    "patching_rect": [ 690.0, 225.0, 256.0, 64.0 ],
                    "presentation": 1,
                    "presentation_rect": [ 45.0, 30.0, 256.0, 60.0 ],
                    "ruler": 0,
                    "setunit": 2,
                    "vticks": 0
                }
            },
            {
                "box": {
                    "id": "obj-1",
                    "maxclass": "newobj",
                    "numinlets": 1,
                    "numoutlets": 2,
                    "outlettype": [ "float", "bang" ],
                    "patching_rect": [ 120.0, 165.0, 109.0, 22.0 ],
                    "text": "buffer~ #0-audio"
                }
            },
            {
                "box": {
                    "angle": 270.0,
                    "grad1": [ 0.125490196078431, 0.125490196078431, 0.125490196078431, 0.99 ],
                    "grad2": [ 0.172137149796092, 0.172137100044002, 0.172137113045018, 1.0 ],
                    "id": "obj-13",
                    "maxclass": "panel",
                    "mode": 1,
                    "numinlets": 1,
                    "numoutlets": 0,
                    "patching_rect": [ 180.0, 330.0, 128.0, 128.0 ],
                    "presentation": 1,
                    "presentation_rect": [ 0.0, 0.0, 315.0, 120.0 ],
                    "proportion": 0.5,
                    "rounded": 0
                }
            }
        ],
        "lines": [
            {
                "patchline": {
                    "destination": [ "obj-53", 0 ],
                    "source": [ "obj-1", 1 ]
                }
            },
            {
                "patchline": {
                    "destination": [ "obj-147", 0 ],
                    "source": [ "obj-101", 0 ]
                }
            },
            {
                "patchline": {
                    "destination": [ "obj-16", 0 ],
                    "order": 0,
                    "source": [ "obj-102", 0 ]
                }
            },
            {
                "patchline": {
                    "destination": [ "obj-19", 1 ],
                    "order": 1,
                    "source": [ "obj-102", 0 ]
                }
            },
            {
                "patchline": {
                    "destination": [ "obj-19", 0 ],
                    "source": [ "obj-104", 0 ]
                }
            },
            {
                "patchline": {
                    "destination": [ "obj-94", 0 ],
                    "source": [ "obj-11", 0 ]
                }
            },
            {
                "patchline": {
                    "destination": [ "obj-24", 0 ],
                    "source": [ "obj-118", 0 ]
                }
            },
            {
                "patchline": {
                    "destination": [ "obj-7", 3 ],
                    "source": [ "obj-119", 0 ]
                }
            },
            {
                "patchline": {
                    "destination": [ "obj-1", 0 ],
                    "source": [ "obj-12", 0 ]
                }
            },
            {
                "patchline": {
                    "destination": [ "obj-119", 1 ],
                    "order": 0,
                    "source": [ "obj-127", 0 ]
                }
            },
            {
                "patchline": {
                    "destination": [ "obj-161", 0 ],
                    "order": 1,
                    "source": [ "obj-127", 0 ]
                }
            },
            {
                "patchline": {
                    "destination": [ "obj-127", 1 ],
                    "source": [ "obj-129", 0 ]
                }
            },
            {
                "patchline": {
                    "destination": [ "obj-16", 1 ],
                    "source": [ "obj-131", 0 ]
                }
            },
            {
                "patchline": {
                    "destination": [ "obj-149", 1 ],
                    "source": [ "obj-132", 0 ]
                }
            },
            {
                "patchline": {
                    "destination": [ "obj-147", 1 ],
                    "source": [ "obj-134", 0 ]
                }
            },
            {
                "patchline": {
                    "destination": [ "obj-36", 0 ],
                    "source": [ "obj-14", 0 ]
                }
            },
            {
                "patchline": {
                    "destination": [ "obj-14", 0 ],
                    "source": [ "obj-147", 0 ]
                }
            },
            {
                "patchline": {
                    "destination": [ "obj-149", 0 ],
                    "order": 1,
                    "source": [ "obj-148", 0 ]
                }
            },
            {
                "patchline": {
                    "destination": [ "obj-21", 0 ],
                    "order": 0,
                    "source": [ "obj-148", 0 ]
                }
            },
            {
                "patchline": {
                    "destination": [ "obj-7", 1 ],
                    "source": [ "obj-149", 0 ]
                }
            },
            {
                "patchline": {
                    "destination": [ "obj-30", 0 ],
                    "source": [ "obj-15", 0 ]
                }
            },
            {
                "patchline": {
                    "destination": [ "obj-127", 0 ],
                    "source": [ "obj-16", 0 ]
                }
            },
            {
                "patchline": {
                    "destination": [ "obj-118", 0 ],
                    "source": [ "obj-161", 0 ]
                }
            },
            {
                "patchline": {
                    "destination": [ "obj-7", 2 ],
                    "source": [ "obj-161", 1 ]
                }
            },
            {
                "patchline": {
                    "destination": [ "obj-102", 1 ],
                    "source": [ "obj-17", 0 ]
                }
            },
            {
                "patchline": {
                    "destination": [ "obj-8", 0 ],
                    "source": [ "obj-18", 0 ]
                }
            },
            {
                "patchline": {
                    "destination": [ "obj-42", 0 ],
                    "order": 1,
                    "source": [ "obj-19", 0 ]
                }
            },
            {
                "patchline": {
                    "destination": [ "obj-81", 0 ],
                    "order": 0,
                    "source": [ "obj-19", 0 ]
                }
            },
            {
                "patchline": {
                    "destination": [ "obj-16", 0 ],
                    "source": [ "obj-21", 0 ]
                }
            },
            {
                "patchline": {
                    "destination": [ "obj-119", 0 ],
                    "source": [ "obj-24", 0 ]
                }
            },
            {
                "patchline": {
                    "destination": [ "obj-24", 1 ],
                    "source": [ "obj-25", 0 ]
                }
            },
            {
                "patchline": {
                    "destination": [ "obj-53", 0 ],
                    "source": [ "obj-26", 0 ]
                }
            },
            {
                "patchline": {
                    "destination": [ "obj-28", 0 ],
                    "source": [ "obj-27", 0 ]
                }
            },
            {
                "patchline": {
                    "destination": [ "obj-104", 0 ],
                    "source": [ "obj-28", 2 ]
                }
            },
            {
                "patchline": {
                    "destination": [ "obj-29", 0 ],
                    "source": [ "obj-28", 1 ]
                }
            },
            {
                "patchline": {
                    "destination": [ "obj-30", 0 ],
                    "source": [ "obj-28", 0 ]
                }
            },
            {
                "patchline": {
                    "destination": [ "obj-12", 0 ],
                    "source": [ "obj-29", 1 ]
                }
            },
            {
                "patchline": {
                    "destination": [ "obj-53", 0 ],
                    "source": [ "obj-29", 0 ]
                }
            },
            {
                "patchline": {
                    "destination": [ "obj-34", 0 ],
                    "source": [ "obj-30", 0 ]
                }
            },
            {
                "patchline": {
                    "destination": [ "obj-148", 0 ],
                    "source": [ "obj-31", 0 ]
                }
            },
            {
                "patchline": {
                    "destination": [ "obj-54", 0 ],
                    "source": [ "obj-31", 1 ]
                }
            },
            {
                "patchline": {
                    "destination": [ "obj-25", 1 ],
                    "source": [ "obj-32", 1 ]
                }
            },
            {
                "patchline": {
                    "destination": [ "obj-25", 0 ],
                    "source": [ "obj-32", 0 ]
                }
            },
            {
                "patchline": {
                    "destination": [ "obj-1", 0 ],
                    "source": [ "obj-33", 0 ]
                }
            },
            {
                "patchline": {
                    "destination": [ "obj-33", 0 ],
                    "source": [ "obj-34", 0 ]
                }
            },
            {
                "patchline": {
                    "destination": [ "obj-2", 0 ],
                    "source": [ "obj-35", 0 ]
                }
            },
            {
                "patchline": {
                    "destination": [ "obj-40", 0 ],
                    "source": [ "obj-35", 1 ]
                }
            },
            {
                "patchline": {
                    "destination": [ "obj-35", 1 ],
                    "source": [ "obj-36", 1 ]
                }
            },
            {
                "patchline": {
                    "destination": [ "obj-35", 0 ],
                    "source": [ "obj-36", 0 ]
                }
            },
            {
                "patchline": {
                    "destination": [ "obj-32", 0 ],
                    "source": [ "obj-38", 0 ]
                }
            },
            {
                "patchline": {
                    "destination": [ "obj-44", 0 ],
                    "source": [ "obj-39", 0 ]
                }
            },
            {
                "patchline": {
                    "destination": [ "obj-35", 2 ],
                    "source": [ "obj-41", 0 ]
                }
            },
            {
                "patchline": {
                    "destination": [ "obj-39", 0 ],
                    "source": [ "obj-42", 0 ]
                }
            },
            {
                "patchline": {
                    "destination": [ "obj-131", 0 ],
                    "source": [ "obj-44", 3 ]
                }
            },
            {
                "patchline": {
                    "destination": [ "obj-131", 0 ],
                    "source": [ "obj-44", 2 ]
                }
            },
            {
                "patchline": {
                    "destination": [ "obj-42", 0 ],
                    "source": [ "obj-44", 0 ]
                }
            },
            {
                "patchline": {
                    "destination": [ "obj-31", 0 ],
                    "source": [ "obj-53", 6 ]
                }
            },
            {
                "patchline": {
                    "destination": [ "obj-44", 0 ],
                    "source": [ "obj-6", 0 ]
                }
            },
            {
                "patchline": {
                    "destination": [ "obj-153", 0 ],
                    "order": 0,
                    "source": [ "obj-67", 0 ]
                }
            },
            {
                "patchline": {
                    "destination": [ "obj-63", 0 ],
                    "order": 1,
                    "source": [ "obj-67", 0 ]
                }
            },
            {
                "patchline": {
                    "destination": [ "obj-124", 0 ],
                    "source": [ "obj-7", 1 ]
                }
            },
            {
                "patchline": {
                    "destination": [ "obj-22", 0 ],
                    "order": 1,
                    "source": [ "obj-7", 2 ]
                }
            },
            {
                "patchline": {
                    "destination": [ "obj-23", 0 ],
                    "order": 1,
                    "source": [ "obj-7", 3 ]
                }
            },
            {
                "patchline": {
                    "destination": [ "obj-67", 1 ],
                    "order": 0,
                    "source": [ "obj-7", 3 ]
                }
            },
            {
                "patchline": {
                    "destination": [ "obj-67", 0 ],
                    "order": 0,
                    "source": [ "obj-7", 2 ]
                }
            },
            {
                "patchline": {
                    "destination": [ "obj-9", 0 ],
                    "source": [ "obj-8", 0 ]
                }
            },
            {
                "patchline": {
                    "destination": [ "obj-18", 0 ],
                    "source": [ "obj-80", 0 ]
                }
            },
            {
                "patchline": {
                    "destination": [ "obj-86", 0 ],
                    "source": [ "obj-80", 1 ]
                }
            },
            {
                "patchline": {
                    "destination": [ "obj-18", 1 ],
                    "order": 1,
                    "source": [ "obj-81", 1 ]
                }
            },
            {
                "patchline": {
                    "destination": [ "obj-80", 0 ],
                    "source": [ "obj-81", 0 ]
                }
            },
            {
                "patchline": {
                    "destination": [ "obj-87", 1 ],
                    "order": 0,
                    "source": [ "obj-81", 1 ]
                }
            },
            {
                "patchline": {
                    "destination": [ "obj-87", 0 ],
                    "source": [ "obj-86", 0 ]
                }
            },
            {
                "patchline": {
                    "destination": [ "obj-88", 0 ],
                    "source": [ "obj-87", 0 ]
                }
            },
            {
                "patchline": {
                    "destination": [ "obj-134", 0 ],
                    "order": 0,
                    "source": [ "obj-88", 0 ]
                }
            },
            {
                "patchline": {
                    "destination": [ "obj-81", 0 ],
                    "order": 2,
                    "source": [ "obj-88", 0 ]
                }
            },
            {
                "patchline": {
                    "destination": [ "obj-96", 0 ],
                    "order": 1,
                    "source": [ "obj-88", 0 ]
                }
            },
            {
                "patchline": {
                    "destination": [ "obj-101", 0 ],
                    "source": [ "obj-9", 0 ]
                }
            },
            {
                "patchline": {
                    "destination": [ "obj-91", 0 ],
                    "source": [ "obj-94", 0 ]
                }
            },
            {
                "patchline": {
                    "destination": [ "obj-101", 1 ],
                    "source": [ "obj-96", 0 ]
                }
            }
        ]
    }
}