{
    "patcher": {
        "fileversion": 1,
        "appversion": {
            "major": 9,
            "minor": 1,
            "revision": 2,
            "architecture": "x64",
            "modernui": 1
        },
        "classnamespace": "box",
        "rect": [ 393.0, 87.0, 654.0, 779.0 ],
        "openinpresentation": 1,
        "gridsnaponopen": 2,
        "objectsnaponopen": 0,
        "boxes": [
            {
                "box": {
                    "id": "obj-5",
                    "maxclass": "newobj",
                    "numinlets": 3,
                    "numoutlets": 2,
                    "outlettype": [ "signal", "signal" ],
                    "patcher": {
                        "fileversion": 1,
                        "appversion": {
                            "major": 9,
                            "minor": 1,
                            "revision": 2,
                            "architecture": "x64",
                            "modernui": 1
                        },
                        "classnamespace": "dsp.gen",
                        "rect": [ 59.0, 106.0, 600.0, 450.0 ],
                        "boxes": [
                            {
                                "box": {
                                    "id": "obj-15",
                                    "maxclass": "newobj",
                                    "numinlets": 1,
                                    "numoutlets": 1,
                                    "outlettype": [ "" ],
                                    "patching_rect": [ 129.0, 92.0, 47.0, 22.0 ],
                                    "text": "clip 0 1"
                                }
                            },
                            {
                                "box": {
                                    "id": "obj-14",
                                    "maxclass": "newobj",
                                    "numinlets": 1,
                                    "numoutlets": 1,
                                    "outlettype": [ "" ],
                                    "patching_rect": [ 165.0, 105.0, 47.0, 22.0 ],
                                    "text": "clip 0 1"
                                }
                            },
                            {
                                "box": {
                                    "id": "obj-13",
                                    "maxclass": "newobj",
                                    "numinlets": 1,
                                    "numoutlets": 1,
                                    "outlettype": [ "" ],
                                    "patching_rect": [ 135.0, 45.0, 23.0, 22.0 ],
                                    "text": "* 2"
                                }
                            },
                            {
                                "box": {
                                    "id": "obj-12",
                                    "maxclass": "newobj",
                                    "numinlets": 1,
                                    "numoutlets": 1,
                                    "outlettype": [ "" ],
                                    "patching_rect": [ 165.0, 75.0, 23.0, 22.0 ],
                                    "text": "* 2"
                                }
                            },
                            {
                                "box": {
                                    "id": "obj-9",
                                    "maxclass": "newobj",
                                    "numinlets": 2,
                                    "numoutlets": 1,
                                    "outlettype": [ "" ],
                                    "patching_rect": [ 105.0, 135.0, 29.5, 22.0 ],
                                    "text": "*"
                                }
                            },
                            {
                                "box": {
                                    "id": "obj-8",
                                    "maxclass": "newobj",
                                    "numinlets": 1,
                                    "numoutlets": 1,
                                    "outlettype": [ "" ],
                                    "patching_rect": [ 165.0, 45.0, 26.0, 22.0 ],
                                    "text": "!- 1"
                                }
                            },
                            {
                                "box": {
                                    "id": "obj-7",
                                    "maxclass": "newobj",
                                    "numinlets": 2,
                                    "numoutlets": 1,
                                    "outlettype": [ "" ],
                                    "patching_rect": [ 15.0, 135.0, 29.5, 22.0 ],
                                    "text": "*"
                                }
                            },
                            {
                                "box": {
                                    "id": "obj-6",
                                    "maxclass": "newobj",
                                    "numinlets": 0,
                                    "numoutlets": 1,
                                    "outlettype": [ "" ],
                                    "patching_rect": [ 165.0, 15.0, 50.0, 22.0 ],
                                    "text": "in 3 mix"
                                }
                            },
                            {
                                "box": {
                                    "id": "obj-5",
                                    "maxclass": "newobj",
                                    "numinlets": 1,
                                    "numoutlets": 0,
                                    "patching_rect": [ 105.0, 240.0, 35.0, 22.0 ],
                                    "text": "out 2"
                                }
                            },
                            {
                                "box": {
                                    "id": "obj-1",
                                    "maxclass": "newobj",
                                    "numinlets": 0,
                                    "numoutlets": 1,
                                    "outlettype": [ "" ],
                                    "patching_rect": [ 15.0, 15.0, 28.0, 22.0 ],
                                    "text": "in 1"
                                }
                            },
                            {
                                "box": {
                                    "id": "obj-2",
                                    "maxclass": "newobj",
                                    "numinlets": 0,
                                    "numoutlets": 1,
                                    "outlettype": [ "" ],
                                    "patching_rect": [ 105.0, 15.0, 28.0, 22.0 ],
                                    "text": "in 2"
                                }
                            },
                            {
                                "box": {
                                    "id": "obj-4",
                                    "maxclass": "newobj",
                                    "numinlets": 1,
                                    "numoutlets": 0,
                                    "patching_rect": [ 15.0, 240.0, 35.0, 22.0 ],
                                    "text": "out 1"
                                }
                            }
                        ],
                        "lines": [
                            {
                                "patchline": {
                                    "destination": [ "obj-7", 0 ],
                                    "source": [ "obj-1", 0 ]
                                }
                            },
                            {
                                "patchline": {
                                    "destination": [ "obj-14", 0 ],
                                    "source": [ "obj-12", 0 ]
                                }
                            },
                            {
                                "patchline": {
                                    "destination": [ "obj-15", 0 ],
                                    "source": [ "obj-13", 0 ]
                                }
                            },
                            {
                                "patchline": {
                                    "destination": [ "obj-7", 1 ],
                                    "source": [ "obj-14", 0 ]
                                }
                            },
                            {
                                "patchline": {
                                    "destination": [ "obj-9", 1 ],
                                    "source": [ "obj-15", 0 ]
                                }
                            },
                            {
                                "patchline": {
                                    "destination": [ "obj-9", 0 ],
                                    "source": [ "obj-2", 0 ]
                                }
                            },
                            {
                                "patchline": {
                                    "destination": [ "obj-13", 0 ],
                                    "order": 1,
                                    "source": [ "obj-6", 0 ]
                                }
                            },
                            {
                                "patchline": {
                                    "destination": [ "obj-8", 0 ],
                                    "order": 0,
                                    "source": [ "obj-6", 0 ]
                                }
                            },
                            {
                                "patchline": {
                                    "destination": [ "obj-4", 0 ],
                                    "source": [ "obj-7", 0 ]
                                }
                            },
                            {
                                "patchline": {
                                    "destination": [ "obj-12", 0 ],
                                    "source": [ "obj-8", 0 ]
                                }
                            },
                            {
                                "patchline": {
                                    "destination": [ "obj-5", 0 ],
                                    "source": [ "obj-9", 0 ]
                                }
                            }
                        ]
                    },
                    "patching_rect": [ 15.0, 120.0, 59.0, 22.0 ],
                    "text": "gen~ pan"
                }
            },
            {
                "box": {
                    "id": "obj-40",
                    "maxclass": "newobj",
                    "numinlets": 2,
                    "numoutlets": 1,
                    "outlettype": [ "multichannelsignal" ],
                    "patching_rect": [ 15.0, 330.0, 60.0, 22.0 ],
                    "text": "mc.pack~"
                }
            },
            {
                "box": {
                    "id": "obj-55",
                    "maxclass": "newobj",
                    "numinlets": 1,
                    "numoutlets": 1,
                    "outlettype": [ "" ],
                    "patching_rect": [ 225.0, 375.0, 39.0, 22.0 ],
                    "text": "dbtoa"
                }
            },
            {
                "box": {
                    "id": "obj-54",
                    "maxclass": "newobj",
                    "numinlets": 1,
                    "numoutlets": 1,
                    "outlettype": [ "" ],
                    "patching_rect": [ 135.0, 375.0, 39.0, 22.0 ],
                    "text": "dbtoa"
                }
            },
            {
                "box": {
                    "id": "obj-52",
                    "maxclass": "newobj",
                    "numinlets": 2,
                    "numoutlets": 1,
                    "outlettype": [ "multichannelsignal" ],
                    "patching_rect": [ 195.0, 405.0, 40.0, 22.0 ],
                    "text": "mc.*~"
                }
            },
            {
                "box": {
                    "id": "obj-50",
                    "maxclass": "newobj",
                    "numinlets": 2,
                    "numoutlets": 1,
                    "outlettype": [ "multichannelsignal" ],
                    "patching_rect": [ 105.0, 405.0, 40.0, 22.0 ],
                    "text": "mc.*~"
                }
            },
            {
                "box": {
                    "comment": "aux send B",
                    "id": "obj-49",
                    "index": 3,
                    "maxclass": "outlet",
                    "numinlets": 1,
                    "numoutlets": 0,
                    "patching_rect": [ 195.0, 435.0, 30.0, 30.0 ]
                }
            },
            {
                "box": {
                    "comment": "aux send A",
                    "id": "obj-46",
                    "index": 2,
                    "maxclass": "outlet",
                    "numinlets": 1,
                    "numoutlets": 0,
                    "patching_rect": [ 105.0, 435.0, 30.0, 30.0 ]
                }
            },
            {
                "box": {
                    "appearance": 1,
                    "id": "obj-44",
                    "maxclass": "live.dial",
                    "numinlets": 1,
                    "numoutlets": 2,
                    "outlettype": [ "", "float" ],
                    "parameter_enable": 1,
                    "patching_rect": [ 225.0, 330.0, 30.0, 36.0 ],
                    "presentation": 1,
                    "presentation_rect": [ 30.0, 60.0, 30.0, 36.0 ],
                    "saved_attribute_attributes": {
                        "valueof": {
                            "parameter_longname": "B[3]",
                            "parameter_mmax": 0.0,
                            "parameter_mmin": -70.0,
                            "parameter_modmode": 3,
                            "parameter_shortname": "B",
                            "parameter_type": 0,
                            "parameter_unitstyle": 4
                        }
                    },
                    "varname": "B"
                }
            },
            {
                "box": {
                    "appearance": 1,
                    "id": "obj-43",
                    "maxclass": "live.dial",
                    "numinlets": 1,
                    "numoutlets": 2,
                    "outlettype": [ "", "float" ],
                    "parameter_enable": 1,
                    "patching_rect": [ 135.0, 330.0, 30.0, 36.0 ],
                    "presentation": 1,
                    "presentation_rect": [ 0.0, 60.0, 30.0, 36.0 ],
                    "saved_attribute_attributes": {
                        "valueof": {
                            "parameter_longname": "A[3]",
                            "parameter_mmax": 0.0,
                            "parameter_mmin": -70.0,
                            "parameter_modmode": 3,
                            "parameter_shortname": "A",
                            "parameter_type": 0,
                            "parameter_unitstyle": 4
                        }
                    },
                    "varname": "A"
                }
            },
            {
                "box": {
                    "id": "obj-41",
                    "maxclass": "message",
                    "numinlets": 2,
                    "numoutlets": 1,
                    "outlettype": [ "" ],
                    "patching_rect": [ 540.0, 510.0, 29.5, 22.0 ],
                    "text": "-70."
                }
            },
            {
                "box": {
                    "id": "obj-39",
                    "maxclass": "newobj",
                    "numinlets": 2,
                    "numoutlets": 1,
                    "outlettype": [ "bang" ],
                    "patching_rect": [ 540.0, 480.0, 126.0, 22.0 ],
                    "text": "metro 3000 @active 1"
                }
            },
            {
                "box": {
                    "id": "obj-27",
                    "maxclass": "newobj",
                    "numinlets": 2,
                    "numoutlets": 1,
                    "outlettype": [ "float" ],
                    "patching_rect": [ 495.0, 435.0, 29.5, 22.0 ],
                    "text": "f"
                }
            },
            {
                "box": {
                    "id": "obj-25",
                    "maxclass": "newobj",
                    "numinlets": 2,
                    "numoutlets": 2,
                    "outlettype": [ "int", "int" ],
                    "patching_rect": [ 420.0, 435.0, 61.0, 22.0 ],
                    "text": "maximum"
                }
            },
            {
                "box": {
                    "id": "obj-10",
                    "maxclass": "newobj",
                    "numinlets": 2,
                    "numoutlets": 1,
                    "outlettype": [ "signal" ],
                    "patching_rect": [ 420.0, 345.0, 40.0, 22.0 ],
                    "text": "*~ 0.5"
                }
            },
            {
                "box": {
                    "id": "obj-18",
                    "maxclass": "newobj",
                    "numinlets": 1,
                    "numoutlets": 1,
                    "outlettype": [ "bang" ],
                    "patching_rect": [ 285.0, 495.0, 61.0, 22.0 ],
                    "text": "savebang"
                }
            },
            {
                "box": {
                    "id": "obj-24",
                    "maxclass": "message",
                    "numinlets": 2,
                    "numoutlets": 1,
                    "outlettype": [ "" ],
                    "patching_rect": [ 360.0, 525.0, 29.5, 22.0 ],
                    "text": "-inf"
                }
            },
            {
                "box": {
                    "id": "obj-17",
                    "maxclass": "newobj",
                    "numinlets": 2,
                    "numoutlets": 2,
                    "outlettype": [ "bang", "" ],
                    "patching_rect": [ 360.0, 495.0, 34.0, 22.0 ],
                    "text": "sel 0"
                }
            },
            {
                "box": {
                    "id": "obj-11",
                    "maxclass": "newobj",
                    "numinlets": 2,
                    "numoutlets": 1,
                    "outlettype": [ "" ],
                    "patching_rect": [ 420.0, 525.0, 32.0, 22.0 ],
                    "text": "gate"
                }
            },
            {
                "box": {
                    "id": "obj-8",
                    "maxclass": "newobj",
                    "numinlets": 1,
                    "numoutlets": 2,
                    "outlettype": [ "float", "float" ],
                    "patching_rect": [ 420.0, 465.0, 29.5, 22.0 ],
                    "text": "t f f"
                }
            },
            {
                "box": {
                    "id": "obj-7",
                    "maxclass": "newobj",
                    "numinlets": 2,
                    "numoutlets": 1,
                    "outlettype": [ "int" ],
                    "patching_rect": [ 435.0, 495.0, 40.0, 22.0 ],
                    "text": "> -70."
                }
            },
            {
                "box": {
                    "id": "obj-38",
                    "maxclass": "newobj",
                    "numinlets": 1,
                    "numoutlets": 1,
                    "outlettype": [ "" ],
                    "patching_rect": [ 525.0, 195.0, 57.0, 22.0 ],
                    "text": "tosymbol"
                }
            },
            {
                "box": {
                    "id": "obj-36",
                    "maxclass": "newobj",
                    "numinlets": 2,
                    "numoutlets": 2,
                    "outlettype": [ "bang", "" ],
                    "patching_rect": [ 525.0, 165.0, 54.0, 22.0 ],
                    "text": "sel bang"
                }
            },
            {
                "box": {
                    "id": "obj-35",
                    "maxclass": "newobj",
                    "numinlets": 2,
                    "numoutlets": 2,
                    "outlettype": [ "", "" ],
                    "patching_rect": [ 525.0, 135.0, 59.0, 22.0 ],
                    "text": "route text"
                }
            },
            {
                "box": {
                    "id": "obj-31",
                    "maxclass": "newobj",
                    "numinlets": 1,
                    "numoutlets": 1,
                    "outlettype": [ "" ],
                    "patching_rect": [ 525.0, 225.0, 89.0, 22.0 ],
                    "text": "prepend /name"
                }
            },
            {
                "box": {
                    "id": "obj-29",
                    "maxclass": "newobj",
                    "numinlets": 6,
                    "numoutlets": 1,
                    "outlettype": [ "" ],
                    "patching_rect": [ 529.0, 87.0, 114.0, 22.0 ],
                    "text": "scale 0. 1. -100 100"
                }
            },
            {
                "box": {
                    "id": "obj-28",
                    "maxclass": "newobj",
                    "numinlets": 6,
                    "numoutlets": 1,
                    "outlettype": [ "" ],
                    "patching_rect": [ 615.0, 270.0, 114.0, 22.0 ],
                    "text": "scale -100 100 0. 1."
                }
            },
            {
                "box": {
                    "comment": "osc",
                    "id": "obj-26",
                    "index": 4,
                    "maxclass": "outlet",
                    "numinlets": 1,
                    "numoutlets": 0,
                    "patching_rect": [ 555.0, 375.0, 30.0, 30.0 ]
                }
            },
            {
                "box": {
                    "id": "obj-23",
                    "maxclass": "newobj",
                    "numinlets": 1,
                    "numoutlets": 1,
                    "outlettype": [ "" ],
                    "patching_rect": [ 615.0, 300.0, 79.0, 22.0 ],
                    "text": "prepend /pan"
                }
            },
            {
                "box": {
                    "id": "obj-22",
                    "maxclass": "newobj",
                    "numinlets": 1,
                    "numoutlets": 1,
                    "outlettype": [ "" ],
                    "patching_rect": [ 480.0, 285.0, 115.0, 22.0 ],
                    "text": "prepend /volume/db"
                }
            },
            {
                "box": {
                    "id": "obj-15",
                    "maxclass": "newobj",
                    "numinlets": 3,
                    "numoutlets": 3,
                    "outlettype": [ "", "", "" ],
                    "patching_rect": [ 15.0, 60.0, 198.0, 22.0 ],
                    "text": "routepass signal multichannelsignal"
                }
            },
            {
                "box": {
                    "id": "obj-47",
                    "maxclass": "newobj",
                    "numinlets": 4,
                    "numoutlets": 4,
                    "outlettype": [ "", "", "", "" ],
                    "patching_rect": [ 480.0, 45.0, 177.0, 22.0 ],
                    "text": "route /volume/db /pan dumposc"
                }
            },
            {
                "box": {
                    "id": "obj-13",
                    "maxclass": "newobj",
                    "numinlets": 1,
                    "numoutlets": 1,
                    "outlettype": [ "" ],
                    "patching_rect": [ 420.0, 405.0, 39.0, 22.0 ],
                    "text": "atodb"
                }
            },
            {
                "box": {
                    "id": "obj-9",
                    "maxclass": "newobj",
                    "numinlets": 2,
                    "numoutlets": 1,
                    "outlettype": [ "float" ],
                    "patching_rect": [ 420.0, 375.0, 88.0, 22.0 ],
                    "text": "peakamp~ 100"
                }
            },
            {
                "box": {
                    "fontsize": 10.0,
                    "id": "obj-14",
                    "maxclass": "comment",
                    "numinlets": 1,
                    "numoutlets": 0,
                    "patching_rect": [ 420.0, 600.0, 142.0, 18.0 ],
                    "presentation": 1,
                    "presentation_rect": [ 0.0, 105.0, 60.0, 18.0 ],
                    "text": "-inf dB",
                    "textjustification": 1
                }
            },
            {
                "box": {
                    "id": "obj-12",
                    "maxclass": "message",
                    "numinlets": 2,
                    "numoutlets": 1,
                    "outlettype": [ "" ],
                    "patching_rect": [ 420.0, 570.0, 59.0, 22.0 ],
                    "text": "set $1 dB"
                }
            },
            {
                "box": {
                    "id": "obj-34",
                    "maxclass": "newobj",
                    "numinlets": 6,
                    "numoutlets": 1,
                    "outlettype": [ "" ],
                    "patching_rect": [ 165.0, 255.0, 114.0, 22.0 ],
                    "text": "scale -100 100 0. 1."
                }
            },
            {
                "box": {
                    "id": "obj-30",
                    "maxclass": "live.dial",
                    "numinlets": 1,
                    "numoutlets": 2,
                    "outlettype": [ "", "float" ],
                    "parameter_enable": 1,
                    "patching_rect": [ 150.0, 195.0, 27.0, 43.0 ],
                    "presentation": 1,
                    "presentation_rect": [ 0.0, 15.0, 60.0, 43.0 ],
                    "saved_attribute_attributes": {
                        "valueof": {
                            "parameter_initial": [ 0.0 ],
                            "parameter_initial_enable": 1,
                            "parameter_longname": "pan[2]",
                            "parameter_mmax": 100.0,
                            "parameter_mmin": -100.0,
                            "parameter_modmode": 3,
                            "parameter_shortname": "pan",
                            "parameter_type": 0,
                            "parameter_unitstyle": 6
                        }
                    },
                    "showname": 0,
                    "triangle": 1,
                    "varname": "pan"
                }
            },
            {
                "box": {
                    "id": "obj-21",
                    "maxclass": "newobj",
                    "numinlets": 1,
                    "numoutlets": 1,
                    "outlettype": [ "" ],
                    "patching_rect": [ 225.0, 105.0, 182.0, 22.0 ],
                    "saved_object_attributes": {
                        "client_rect": [ 100, 159, 454, 287 ],
                        "parameter_enable": 0,
                        "parameter_mappable": 0,
                        "storage_rect": [ 583, 69, 1034, 197 ]
                    },
                    "text": "pattrstorage slecm.mix.channel~",
                    "varname": "slecm.mix.channel~"
                }
            },
            {
                "box": {
                    "id": "obj-20",
                    "maxclass": "newobj",
                    "numinlets": 1,
                    "numoutlets": 4,
                    "outlettype": [ "", "", "", "" ],
                    "patching_rect": [ 225.0, 135.0, 56.0, 22.0 ],
                    "restore": {
                        "A": [ 0.0 ],
                        "B": [ 0.0 ],
                        "label": [ "" ],
                        "live.gain~": [ 0.0 ],
                        "pan": [ 0.0 ]
                    },
                    "text": "autopattr",
                    "varname": "u364006286"
                }
            },
            {
                "box": {
                    "border": 1.0,
                    "fontsize": 10.0,
                    "id": "obj-19",
                    "keymode": 1,
                    "lines": 1,
                    "maxclass": "textedit",
                    "numinlets": 1,
                    "numoutlets": 4,
                    "outlettype": [ "", "int", "", "" ],
                    "parameter_enable": 0,
                    "patching_rect": [ 105.0, 105.0, 88.0, 50.0 ],
                    "presentation": 1,
                    "presentation_rect": [ 0.0, 0.0, 60.0, 15.0 ],
                    "rounded": 0.0,
                    "textjustification": 1,
                    "varname": "label",
                    "wordwrap": 0
                }
            },
            {
                "box": {
                    "comment": "stereo",
                    "id": "obj-16",
                    "index": 1,
                    "maxclass": "outlet",
                    "numinlets": 1,
                    "numoutlets": 0,
                    "patching_rect": [ 15.0, 435.0, 30.0, 30.0 ]
                }
            },
            {
                "box": {
                    "comment": "",
                    "id": "obj-4",
                    "index": 2,
                    "maxclass": "inlet",
                    "numinlets": 0,
                    "numoutlets": 1,
                    "outlettype": [ "signal" ],
                    "patching_rect": [ 60.0, 15.0, 30.0, 30.0 ]
                }
            },
            {
                "box": {
                    "id": "obj-3",
                    "maxclass": "newobj",
                    "numinlets": 1,
                    "numoutlets": 2,
                    "outlettype": [ "signal", "signal" ],
                    "patching_rect": [ 15.0, 90.0, 74.0, 22.0 ],
                    "text": "mc.unpack~"
                }
            },
            {
                "box": {
                    "comment": "",
                    "id": "obj-2",
                    "index": 1,
                    "maxclass": "inlet",
                    "numinlets": 0,
                    "numoutlets": 1,
                    "outlettype": [ "signal" ],
                    "patching_rect": [ 15.0, 15.0, 30.0, 30.0 ]
                }
            },
            {
                "box": {
                    "id": "obj-1",
                    "lastchannelcount": 0,
                    "maxclass": "live.gain~",
                    "numinlets": 2,
                    "numoutlets": 5,
                    "outlettype": [ "signal", "signal", "", "float", "list" ],
                    "parameter_enable": 1,
                    "patching_rect": [ 15.0, 165.0, 48.0, 136.0 ],
                    "presentation": 1,
                    "presentation_rect": [ 0.0, 120.0, 60.0, 120.0 ],
                    "saved_attribute_attributes": {
                        "valueof": {
                            "parameter_longname": "live.gain~[2]",
                            "parameter_mmax": 6.0,
                            "parameter_mmin": -70.0,
                            "parameter_modmode": 3,
                            "parameter_shortname": "live.gain~",
                            "parameter_type": 0,
                            "parameter_unitstyle": 4
                        }
                    },
                    "showname": 0,
                    "varname": "live.gain~"
                }
            },
            {
                "box": {
                    "angle": 270.0,
                    "grad1": [ 0.125490196078431, 0.125490196078431, 0.125490196078431, 0.99 ],
                    "grad2": [ 0.172137149796092, 0.172137100044002, 0.172137113045018, 1.0 ],
                    "id": "obj-6",
                    "maxclass": "panel",
                    "mode": 1,
                    "numinlets": 1,
                    "numoutlets": 0,
                    "patching_rect": [ 765.0, 150.0, 128.0, 128.0 ],
                    "presentation": 1,
                    "presentation_rect": [ 0.0, 0.0, 60.0, 240.0 ],
                    "proportion": 0.5,
                    "rounded": 0
                }
            }
        ],
        "lines": [
            {
                "patchline": {
                    "destination": [ "obj-10", 0 ],
                    "order": 0,
                    "source": [ "obj-1", 1 ]
                }
            },
            {
                "patchline": {
                    "destination": [ "obj-10", 0 ],
                    "order": 0,
                    "source": [ "obj-1", 0 ]
                }
            },
            {
                "patchline": {
                    "destination": [ "obj-22", 0 ],
                    "source": [ "obj-1", 2 ]
                }
            },
            {
                "patchline": {
                    "destination": [ "obj-40", 1 ],
                    "order": 1,
                    "source": [ "obj-1", 1 ]
                }
            },
            {
                "patchline": {
                    "destination": [ "obj-40", 0 ],
                    "order": 1,
                    "source": [ "obj-1", 0 ]
                }
            },
            {
                "patchline": {
                    "destination": [ "obj-9", 0 ],
                    "source": [ "obj-10", 0 ]
                }
            },
            {
                "patchline": {
                    "destination": [ "obj-12", 0 ],
                    "source": [ "obj-11", 0 ]
                }
            },
            {
                "patchline": {
                    "destination": [ "obj-14", 0 ],
                    "source": [ "obj-12", 0 ]
                }
            },
            {
                "patchline": {
                    "destination": [ "obj-25", 0 ],
                    "source": [ "obj-13", 0 ]
                }
            },
            {
                "patchline": {
                    "destination": [ "obj-3", 0 ],
                    "source": [ "obj-15", 1 ]
                }
            },
            {
                "patchline": {
                    "destination": [ "obj-3", 0 ],
                    "source": [ "obj-15", 0 ]
                }
            },
            {
                "patchline": {
                    "destination": [ "obj-47", 0 ],
                    "source": [ "obj-15", 2 ]
                }
            },
            {
                "patchline": {
                    "destination": [ "obj-24", 0 ],
                    "source": [ "obj-17", 0 ]
                }
            },
            {
                "patchline": {
                    "destination": [ "obj-24", 0 ],
                    "source": [ "obj-18", 0 ]
                }
            },
            {
                "patchline": {
                    "destination": [ "obj-35", 0 ],
                    "source": [ "obj-19", 0 ]
                }
            },
            {
                "patchline": {
                    "destination": [ "obj-15", 0 ],
                    "source": [ "obj-2", 0 ]
                }
            },
            {
                "patchline": {
                    "destination": [ "obj-26", 0 ],
                    "source": [ "obj-22", 0 ]
                }
            },
            {
                "patchline": {
                    "destination": [ "obj-26", 0 ],
                    "source": [ "obj-23", 0 ]
                }
            },
            {
                "patchline": {
                    "destination": [ "obj-12", 0 ],
                    "source": [ "obj-24", 0 ]
                }
            },
            {
                "patchline": {
                    "destination": [ "obj-27", 0 ],
                    "order": 0,
                    "source": [ "obj-25", 0 ]
                }
            },
            {
                "patchline": {
                    "destination": [ "obj-8", 0 ],
                    "order": 1,
                    "source": [ "obj-25", 0 ]
                }
            },
            {
                "patchline": {
                    "destination": [ "obj-25", 1 ],
                    "source": [ "obj-27", 0 ]
                }
            },
            {
                "patchline": {
                    "destination": [ "obj-23", 0 ],
                    "source": [ "obj-28", 0 ]
                }
            },
            {
                "patchline": {
                    "destination": [ "obj-30", 0 ],
                    "source": [ "obj-29", 0 ]
                }
            },
            {
                "patchline": {
                    "destination": [ "obj-5", 1 ],
                    "source": [ "obj-3", 1 ]
                }
            },
            {
                "patchline": {
                    "destination": [ "obj-5", 0 ],
                    "source": [ "obj-3", 0 ]
                }
            },
            {
                "patchline": {
                    "destination": [ "obj-28", 0 ],
                    "order": 0,
                    "source": [ "obj-30", 0 ]
                }
            },
            {
                "patchline": {
                    "destination": [ "obj-34", 0 ],
                    "order": 1,
                    "source": [ "obj-30", 0 ]
                }
            },
            {
                "patchline": {
                    "destination": [ "obj-26", 0 ],
                    "source": [ "obj-31", 0 ]
                }
            },
            {
                "patchline": {
                    "destination": [ "obj-5", 2 ],
                    "source": [ "obj-34", 0 ]
                }
            },
            {
                "patchline": {
                    "destination": [ "obj-36", 0 ],
                    "source": [ "obj-35", 0 ]
                }
            },
            {
                "patchline": {
                    "destination": [ "obj-38", 0 ],
                    "source": [ "obj-36", 1 ]
                }
            },
            {
                "patchline": {
                    "destination": [ "obj-31", 0 ],
                    "source": [ "obj-38", 0 ]
                }
            },
            {
                "patchline": {
                    "destination": [ "obj-41", 0 ],
                    "source": [ "obj-39", 0 ]
                }
            },
            {
                "patchline": {
                    "destination": [ "obj-5", 1 ],
                    "source": [ "obj-4", 0 ]
                }
            },
            {
                "patchline": {
                    "destination": [ "obj-16", 0 ],
                    "order": 2,
                    "source": [ "obj-40", 0 ]
                }
            },
            {
                "patchline": {
                    "destination": [ "obj-50", 0 ],
                    "order": 1,
                    "source": [ "obj-40", 0 ]
                }
            },
            {
                "patchline": {
                    "destination": [ "obj-52", 0 ],
                    "order": 0,
                    "source": [ "obj-40", 0 ]
                }
            },
            {
                "patchline": {
                    "destination": [ "obj-25", 1 ],
                    "source": [ "obj-41", 0 ]
                }
            },
            {
                "patchline": {
                    "destination": [ "obj-54", 0 ],
                    "source": [ "obj-43", 0 ]
                }
            },
            {
                "patchline": {
                    "destination": [ "obj-55", 0 ],
                    "source": [ "obj-44", 0 ]
                }
            },
            {
                "patchline": {
                    "destination": [ "obj-1", 0 ],
                    "order": 2,
                    "source": [ "obj-47", 2 ]
                }
            },
            {
                "patchline": {
                    "destination": [ "obj-1", 0 ],
                    "source": [ "obj-47", 0 ]
                }
            },
            {
                "patchline": {
                    "destination": [ "obj-19", 0 ],
                    "order": 1,
                    "source": [ "obj-47", 2 ]
                }
            },
            {
                "patchline": {
                    "destination": [ "obj-29", 0 ],
                    "source": [ "obj-47", 1 ]
                }
            },
            {
                "patchline": {
                    "destination": [ "obj-30", 0 ],
                    "order": 0,
                    "source": [ "obj-47", 2 ]
                }
            },
            {
                "patchline": {
                    "destination": [ "obj-1", 1 ],
                    "source": [ "obj-5", 1 ]
                }
            },
            {
                "patchline": {
                    "destination": [ "obj-1", 0 ],
                    "source": [ "obj-5", 0 ]
                }
            },
            {
                "patchline": {
                    "destination": [ "obj-46", 0 ],
                    "source": [ "obj-50", 0 ]
                }
            },
            {
                "patchline": {
                    "destination": [ "obj-49", 0 ],
                    "source": [ "obj-52", 0 ]
                }
            },
            {
                "patchline": {
                    "destination": [ "obj-50", 1 ],
                    "source": [ "obj-54", 0 ]
                }
            },
            {
                "patchline": {
                    "destination": [ "obj-52", 1 ],
                    "source": [ "obj-55", 0 ]
                }
            },
            {
                "patchline": {
                    "destination": [ "obj-11", 0 ],
                    "order": 0,
                    "source": [ "obj-7", 0 ]
                }
            },
            {
                "patchline": {
                    "destination": [ "obj-17", 0 ],
                    "order": 1,
                    "source": [ "obj-7", 0 ]
                }
            },
            {
                "patchline": {
                    "destination": [ "obj-11", 1 ],
                    "source": [ "obj-8", 0 ]
                }
            },
            {
                "patchline": {
                    "destination": [ "obj-7", 0 ],
                    "source": [ "obj-8", 1 ]
                }
            },
            {
                "patchline": {
                    "destination": [ "obj-13", 0 ],
                    "source": [ "obj-9", 0 ]
                }
            }
        ]
    }
}