{
    "patcher": {
        "fileversion": 1,
        "appversion": {
            "major": 9,
            "minor": 1,
            "revision": 2,
            "architecture": "x64",
            "modernui": 1
        },
        "classnamespace": "box",
        "rect": [ 34.0, 87.0, 1372.0, 779.0 ],
        "openinpresentation": 1,
        "gridsnaponopen": 2,
        "objectsnaponopen": 0,
        "boxes": [
            {
                "box": {
                    "id": "obj-58",
                    "maxclass": "newobj",
                    "numinlets": 2,
                    "numoutlets": 2,
                    "outlettype": [ "", "" ],
                    "patching_rect": [ 135.0, 15.0, 60.0, 22.0 ],
                    "text": "route rate"
                }
            },
            {
                "box": {
                    "id": "obj-43",
                    "maxclass": "newobj",
                    "numinlets": 1,
                    "numoutlets": 2,
                    "outlettype": [ "bang", "bang" ],
                    "patching_rect": [ 251.13636124134064, 751.136356472969, 42.0, 22.0 ],
                    "text": "edge~"
                }
            },
            {
                "box": {
                    "id": "obj-29",
                    "maxclass": "newobj",
                    "numinlets": 2,
                    "numoutlets": 1,
                    "outlettype": [ "signal" ],
                    "patching_rect": [ 255.0, 720.0, 29.5, 22.0 ],
                    "text": "*~"
                }
            },
            {
                "box": {
                    "id": "obj-22",
                    "maxclass": "newobj",
                    "numinlets": 2,
                    "numoutlets": 1,
                    "outlettype": [ "signal" ],
                    "patching_rect": [ 315.0, 675.0, 30.0, 22.0 ],
                    "text": "==~"
                }
            },
            {
                "box": {
                    "id": "obj-14",
                    "maxclass": "newobj",
                    "numinlets": 1,
                    "numoutlets": 1,
                    "outlettype": [ "signal" ],
                    "patching_rect": [ 315.0, 645.0, 31.0, 22.0 ],
                    "text": "sig~"
                }
            },
            {
                "box": {
                    "id": "obj-8",
                    "maxclass": "newobj",
                    "numinlets": 1,
                    "numoutlets": 2,
                    "outlettype": [ "signal", "int" ],
                    "patching_rect": [ 15.0, 360.0, 41.0, 22.0 ],
                    "text": "what~"
                }
            },
            {
                "box": {
                    "comment": "sequence end",
                    "id": "obj-56",
                    "index": 3,
                    "maxclass": "outlet",
                    "numinlets": 1,
                    "numoutlets": 0,
                    "patching_rect": [ 150.0, 735.0, 30.0, 30.0 ]
                }
            },
            {
                "box": {
                    "id": "obj-52",
                    "maxclass": "newobj",
                    "numinlets": 1,
                    "numoutlets": 2,
                    "outlettype": [ "", "" ],
                    "patching_rect": [ 135.0, 45.0, 29.5, 22.0 ],
                    "text": "t l l"
                }
            },
            {
                "box": {
                    "id": "obj-24",
                    "maxclass": "newobj",
                    "numinlets": 2,
                    "numoutlets": 2,
                    "outlettype": [ "", "" ],
                    "patching_rect": [ 165.0, 75.0, 37.0, 22.0 ],
                    "text": "zl.len"
                }
            },
            {
                "box": {
                    "id": "obj-19",
                    "maxclass": "newobj",
                    "numinlets": 1,
                    "numoutlets": 6,
                    "outlettype": [ "signal", "bang", "int", "float", "", "" ],
                    "patching_rect": [ 15.0, 60.0, 71.5, 22.0 ],
                    "text": "typeroute~"
                }
            },
            {
                "box": {
                    "comment": "message",
                    "id": "obj-41",
                    "index": 4,
                    "maxclass": "outlet",
                    "numinlets": 1,
                    "numoutlets": 0,
                    "patching_rect": [ 225.0, 600.0, 30.0, 30.0 ]
                }
            },
            {
                "box": {
                    "id": "obj-42",
                    "maxclass": "message",
                    "numinlets": 2,
                    "numoutlets": 1,
                    "outlettype": [ "" ],
                    "patching_rect": [ 645.0, 195.0, 29.5, 22.0 ],
                    "text": "min"
                }
            },
            {
                "box": {
                    "bgcolor": [ 0.172137149796092, 0.172137100044002, 0.172137113045018, 0.0 ],
                    "bgcolor2": [ 0.172137149796092, 0.172137100044002, 0.172137113045018, 1.0 ],
                    "bgfillcolor_angle": 270.0,
                    "bgfillcolor_autogradient": 0.0,
                    "bgfillcolor_color": [ 0.172137149796092, 0.172137100044002, 0.172137113045018, 0.0 ],
                    "bgfillcolor_color1": [ 0.172137149796092, 0.172137100044002, 0.172137113045018, 0.0 ],
                    "bgfillcolor_color2": [ 0.172137149796092, 0.172137100044002, 0.172137113045018, 1.0 ],
                    "bgfillcolor_proportion": 0.5,
                    "bgfillcolor_type": "gradient",
                    "fontsize": 10.0,
                    "gradient": 1,
                    "id": "obj-20",
                    "maxclass": "message",
                    "numinlets": 2,
                    "numoutlets": 1,
                    "outlettype": [ "" ],
                    "patching_rect": [ 690.0, 45.0, 45.0, 20.0 ],
                    "presentation": 1,
                    "presentation_rect": [ 135.0, 0.0, 45.0, 20.0 ],
                    "text": "clear",
                    "textjustification": 1
                }
            },
            {
                "box": {
                    "id": "obj-50",
                    "maxclass": "newobj",
                    "numinlets": 2,
                    "numoutlets": 1,
                    "outlettype": [ "signal" ],
                    "patching_rect": [ 360.0, 645.0, 33.0, 22.0 ],
                    "text": "+~ 1"
                }
            },
            {
                "box": {
                    "comment": "sync",
                    "id": "obj-49",
                    "index": 2,
                    "maxclass": "outlet",
                    "numinlets": 1,
                    "numoutlets": 0,
                    "patching_rect": [ 75.0, 600.0, 30.0, 30.0 ]
                }
            },
            {
                "box": {
                    "bgcolor": [ 0.172137149796092, 0.172137100044002, 0.172137113045018, 0.0 ],
                    "bgcolor2": [ 0.172137149796092, 0.172137100044002, 0.172137113045018, 1.0 ],
                    "bgfillcolor_angle": 270.0,
                    "bgfillcolor_autogradient": 0.0,
                    "bgfillcolor_color": [ 0.172137149796092, 0.172137100044002, 0.172137113045018, 0.0 ],
                    "bgfillcolor_color1": [ 0.172137149796092, 0.172137100044002, 0.172137113045018, 0.0 ],
                    "bgfillcolor_color2": [ 0.172137149796092, 0.172137100044002, 0.172137113045018, 1.0 ],
                    "bgfillcolor_proportion": 0.5,
                    "bgfillcolor_type": "gradient",
                    "fontsize": 10.0,
                    "gradient": 1,
                    "id": "obj-16",
                    "maxclass": "message",
                    "numinlets": 2,
                    "numoutlets": 1,
                    "outlettype": [ "" ],
                    "patching_rect": [ 555.0, 45.0, 45.0, 20.0 ],
                    "presentation": 1,
                    "presentation_rect": [ 0.0, 0.0, 45.0, 20.0 ],
                    "text": "shuffle",
                    "textjustification": 1
                }
            },
            {
                "box": {
                    "id": "obj-31",
                    "maxclass": "newobj",
                    "numinlets": 1,
                    "numoutlets": 1,
                    "outlettype": [ "" ],
                    "patching_rect": [ 645.0, 165.0, 63.0, 22.0 ],
                    "text": "array.tolist"
                }
            },
            {
                "box": {
                    "id": "obj-28",
                    "maxclass": "newobj",
                    "numinlets": 2,
                    "numoutlets": 3,
                    "outlettype": [ "", "", "" ],
                    "patching_rect": [ 645.0, 105.0, 40.0, 22.0 ],
                    "saved_object_attributes": {
                        "parameter_enable": 0,
                        "parameter_mappable": 0
                    },
                    "text": "array"
                }
            },
            {
                "box": {
                    "id": "obj-25",
                    "maxclass": "newobj",
                    "numinlets": 2,
                    "numoutlets": 2,
                    "outlettype": [ "", "list" ],
                    "patching_rect": [ 645.0, 135.0, 73.0, 22.0 ],
                    "text": "array.shuffle"
                }
            },
            {
                "box": {
                    "bgcolor": [ 0.172137149796092, 0.172137100044002, 0.172137113045018, 0.0 ],
                    "bgcolor2": [ 0.172137149796092, 0.172137100044002, 0.172137113045018, 1.0 ],
                    "bgfillcolor_angle": 270.0,
                    "bgfillcolor_autogradient": 0.0,
                    "bgfillcolor_color": [ 0.172137149796092, 0.172137100044002, 0.172137113045018, 0.0 ],
                    "bgfillcolor_color1": [ 0.172137149796092, 0.172137100044002, 0.172137113045018, 0.0 ],
                    "bgfillcolor_color2": [ 0.172137149796092, 0.172137100044002, 0.172137113045018, 1.0 ],
                    "bgfillcolor_proportion": 0.5,
                    "bgfillcolor_type": "gradient",
                    "fontsize": 10.0,
                    "gradient": 1,
                    "id": "obj-46",
                    "maxclass": "message",
                    "numinlets": 2,
                    "numoutlets": 1,
                    "outlettype": [ "" ],
                    "patching_rect": [ 600.0, 45.0, 45.0, 20.0 ],
                    "presentation": 1,
                    "presentation_rect": [ 45.0, 0.0, 45.0, 20.0 ],
                    "text": "random",
                    "textjustification": 1
                }
            },
            {
                "box": {
                    "id": "obj-44",
                    "maxclass": "newobj",
                    "numinlets": 1,
                    "numoutlets": 1,
                    "outlettype": [ "" ],
                    "patching_rect": [ 555.0, 285.0, 87.0, 22.0 ],
                    "text": "prepend select"
                }
            },
            {
                "box": {
                    "id": "obj-40",
                    "maxclass": "newobj",
                    "numinlets": 2,
                    "numoutlets": 1,
                    "outlettype": [ "" ],
                    "patching_rect": [ 555.0, 255.0, 47.0, 22.0 ],
                    "text": "pack i f"
                }
            },
            {
                "box": {
                    "id": "obj-39",
                    "maxclass": "newobj",
                    "numinlets": 2,
                    "numoutlets": 2,
                    "outlettype": [ "int", "int" ],
                    "patching_rect": [ 555.0, 225.0, 40.0, 22.0 ],
                    "text": "fswap"
                }
            },
            {
                "box": {
                    "id": "obj-38",
                    "maxclass": "newobj",
                    "numinlets": 2,
                    "numoutlets": 1,
                    "outlettype": [ "float" ],
                    "patching_rect": [ 555.0, 195.0, 47.0, 22.0 ],
                    "text": "* 0.001"
                }
            },
            {
                "box": {
                    "id": "obj-33",
                    "maxclass": "newobj",
                    "numinlets": 2,
                    "numoutlets": 1,
                    "outlettype": [ "" ],
                    "patching_rect": [ 555.0, 165.0, 79.0, 22.0 ],
                    "text": "random 1000"
                }
            },
            {
                "box": {
                    "id": "obj-23",
                    "maxclass": "newobj",
                    "numinlets": 2,
                    "numoutlets": 3,
                    "outlettype": [ "bang", "bang", "int" ],
                    "patching_rect": [ 555.0, 135.0, 40.0, 22.0 ],
                    "text": "uzi"
                }
            },
            {
                "box": {
                    "id": "obj-21",
                    "maxclass": "newobj",
                    "numinlets": 5,
                    "numoutlets": 5,
                    "outlettype": [ "bang", "bang", "bang", "bang", "" ],
                    "patching_rect": [ 555.0, 75.0, 166.0, 22.0 ],
                    "text": "sel random reset shuffle clear"
                }
            },
            {
                "box": {
                    "id": "obj-4",
                    "maxclass": "newobj",
                    "numinlets": 2,
                    "numoutlets": 1,
                    "outlettype": [ "int" ],
                    "patching_rect": [ 555.0, 105.0, 29.5, 22.0 ],
                    "text": "i"
                }
            },
            {
                "box": {
                    "id": "obj-37",
                    "maxclass": "newobj",
                    "numinlets": 1,
                    "numoutlets": 1,
                    "outlettype": [ "bang" ],
                    "patching_rect": [ 135.0, 135.0, 22.0, 22.0 ],
                    "text": "t b"
                }
            },
            {
                "box": {
                    "id": "obj-13",
                    "maxclass": "newobj",
                    "numinlets": 1,
                    "numoutlets": 1,
                    "outlettype": [ "" ],
                    "patching_rect": [ 555.0, 570.0, 156.0, 22.0 ],
                    "saved_object_attributes": {
                        "client_rect": [ 100, 159, 454, 287 ],
                        "parameter_enable": 0,
                        "parameter_mappable": 0,
                        "storage_rect": [ 583, 69, 1034, 197 ]
                    },
                    "text": "pattrstorage slecm.seq.step",
                    "varname": "slecm.seq.step"
                }
            },
            {
                "box": {
                    "id": "obj-9",
                    "maxclass": "newobj",
                    "numinlets": 1,
                    "numoutlets": 4,
                    "outlettype": [ "", "", "", "" ],
                    "patching_rect": [ 555.0, 600.0, 56.0, 22.0 ],
                    "restore": {
                        "mslider": [ 0.0, 0.0, 0.0, 0.0, 0.0, 0.0, 0.0, 0.0, 0.0, 0.0, 0.0, 0.0, 0.0, 0.0, 0.0, 0.0 ],
                        "rate": [ 1.0 ],
                        "steps": [ 16 ]
                    },
                    "text": "autopattr",
                    "varname": "u272002012"
                }
            },
            {
                "box": {
                    "id": "obj-3",
                    "maxclass": "newobj",
                    "numinlets": 2,
                    "numoutlets": 1,
                    "outlettype": [ "signal" ],
                    "patching_rect": [ 15.0, 450.0, 29.5, 22.0 ],
                    "text": "*~"
                }
            },
            {
                "box": {
                    "id": "obj-2",
                    "maxclass": "newobj",
                    "numinlets": 1,
                    "numoutlets": 3,
                    "outlettype": [ "signal", "signal", "int" ],
                    "patching_rect": [ 15.0, 330.0, 50.0, 22.0 ],
                    "text": "subdiv~"
                }
            },
            {
                "box": {
                    "bgcolor": [ 0.172137149796092, 0.172137100044002, 0.172137113045018, 0.0 ],
                    "bgcolor2": [ 0.172137149796092, 0.172137100044002, 0.172137113045018, 1.0 ],
                    "bgfillcolor_angle": 270.0,
                    "bgfillcolor_autogradient": 0.0,
                    "bgfillcolor_color": [ 0.172137149796092, 0.172137100044002, 0.172137113045018, 0.0 ],
                    "bgfillcolor_color1": [ 0.172137149796092, 0.172137100044002, 0.172137113045018, 0.0 ],
                    "bgfillcolor_color2": [ 0.172137149796092, 0.172137100044002, 0.172137113045018, 1.0 ],
                    "bgfillcolor_proportion": 0.5,
                    "bgfillcolor_type": "gradient",
                    "fontsize": 10.0,
                    "gradient": 1,
                    "id": "obj-35",
                    "maxclass": "message",
                    "numinlets": 2,
                    "numoutlets": 1,
                    "outlettype": [ "" ],
                    "patching_rect": [ 645.0, 45.0, 45.0, 20.0 ],
                    "presentation": 1,
                    "presentation_rect": [ 90.0, 0.0, 45.0, 20.0 ],
                    "text": "reset",
                    "textjustification": 1
                }
            },
            {
                "box": {
                    "comment": "",
                    "id": "obj-32",
                    "index": 1,
                    "maxclass": "outlet",
                    "numinlets": 1,
                    "numoutlets": 0,
                    "patching_rect": [ 15.0, 600.0, 30.0, 30.0 ]
                }
            },
            {
                "box": {
                    "id": "obj-30",
                    "maxclass": "newobj",
                    "numinlets": 2,
                    "numoutlets": 1,
                    "outlettype": [ "float" ],
                    "patching_rect": [ 135.0, 405.0, 81.0, 22.0 ],
                    "text": "snapshot~ 20"
                }
            },
            {
                "box": {
                    "id": "obj-18",
                    "maxclass": "newobj",
                    "numinlets": 2,
                    "numoutlets": 1,
                    "outlettype": [ "signal" ],
                    "patching_rect": [ 15.0, 90.0, 36.0, 22.0 ],
                    "text": "rate~"
                }
            },
            {
                "box": {
                    "fontsize": 10.0,
                    "id": "obj-17",
                    "maxclass": "comment",
                    "numinlets": 1,
                    "numoutlets": 0,
                    "patching_rect": [ 225.0, 105.0, 41.0, 18.0 ],
                    "presentation": 1,
                    "presentation_rect": [ 300.0, 0.0, 45.0, 18.0 ],
                    "text": "rate:",
                    "textjustification": 2
                }
            },
            {
                "box": {
                    "bgcolor": [ 0.125, 0.125, 0.125, 0.0 ],
                    "fontsize": 10.0,
                    "format": 6,
                    "id": "obj-15",
                    "maxclass": "flonum",
                    "numinlets": 1,
                    "numoutlets": 2,
                    "outlettype": [ "", "bang" ],
                    "parameter_enable": 0,
                    "patching_rect": [ 270.0, 105.0, 47.0, 20.0 ],
                    "presentation": 1,
                    "presentation_rect": [ 345.0, 0.0, 45.0, 20.0 ],
                    "varname": "rate"
                }
            },
            {
                "box": {
                    "id": "obj-12",
                    "maxclass": "newobj",
                    "numinlets": 4,
                    "numoutlets": 2,
                    "outlettype": [ "signal", "signal" ],
                    "patching_rect": [ 135.0, 330.0, 109.0, 22.0 ],
                    "text": "stash~ @mode 2"
                }
            },
            {
                "box": {
                    "comment": "",
                    "id": "obj-11",
                    "index": 1,
                    "maxclass": "inlet",
                    "numinlets": 0,
                    "numoutlets": 1,
                    "outlettype": [ "" ],
                    "patching_rect": [ 15.0, 15.0, 30.0, 30.0 ]
                }
            },
            {
                "box": {
                    "id": "obj-10",
                    "maxclass": "message",
                    "numinlets": 2,
                    "numoutlets": 1,
                    "outlettype": [ "" ],
                    "patching_rect": [ 165.0, 135.0, 47.0, 22.0 ],
                    "text": "size $1"
                }
            },
            {
                "box": {
                    "fontsize": 10.0,
                    "id": "obj-7",
                    "maxclass": "comment",
                    "numinlets": 1,
                    "numoutlets": 0,
                    "patching_rect": [ 120.0, 105.0, 39.0, 18.0 ],
                    "presentation": 1,
                    "presentation_rect": [ 210.0, 0.0, 45.0, 18.0 ],
                    "text": "steps:",
                    "textjustification": 2
                }
            },
            {
                "box": {
                    "bgcolor": [ 0.125, 0.125, 0.125, 0.0 ],
                    "fontsize": 10.0,
                    "id": "obj-5",
                    "maxclass": "number",
                    "minimum": 2,
                    "numinlets": 1,
                    "numoutlets": 2,
                    "outlettype": [ "", "bang" ],
                    "parameter_enable": 0,
                    "patching_rect": [ 165.0, 105.0, 47.0, 20.0 ],
                    "presentation": 1,
                    "presentation_rect": [ 255.0, 0.0, 45.0, 20.0 ],
                    "varname": "steps"
                }
            },
            {
                "box": {
                    "bgcolor": [ 0.117647058823529, 0.117647058823529, 0.117647058823529, 0.0 ],
                    "floatoutput": 1,
                    "id": "obj-26",
                    "ignoreclick": 1,
                    "knobcolor": [ 0.9, 0.65, 0.05, 1.0 ],
                    "knobshape": 5,
                    "maxclass": "slider",
                    "numinlets": 1,
                    "numoutlets": 1,
                    "outlettype": [ "" ],
                    "parameter_enable": 0,
                    "patching_rect": [ 135.0, 435.0, 360.0, 135.0 ],
                    "presentation": 1,
                    "presentation_rect": [ 0.0, 22.0, 390.0, 83.0 ],
                    "saved_attribute_attributes": {
                        "knobcolor": {
                            "expression": "themecolor.live_control_selection"
                        }
                    },
                    "size": 1.0,
                    "thickness": 55.0
                }
            },
            {
                "box": {
                    "bgcolor": [ 0.125490196078431, 0.125490196078431, 0.125490196078431, 0.0 ],
                    "candycane": 2,
                    "contdata": 1,
                    "ghostbar": 100,
                    "id": "obj-1",
                    "maxclass": "multislider",
                    "numinlets": 1,
                    "numoutlets": 2,
                    "outlettype": [ "", "" ],
                    "parameter_enable": 0,
                    "patching_rect": [ 135.0, 165.0, 360.0, 135.0 ],
                    "presentation": 1,
                    "presentation_rect": [ 0.0, 22.0, 390.0, 83.0 ],
                    "setminmax": [ 0.0, 1.0 ],
                    "setstyle": 1,
                    "shadowalpha": 1.0,
                    "shadowblend": 0.5,
                    "shadowproportion": 1.0,
                    "size": 16,
                    "varname": "mslider"
                }
            },
            {
                "box": {
                    "angle": 270.0,
                    "grad1": [ 0.125490196078431, 0.125490196078431, 0.125490196078431, 0.99 ],
                    "grad2": [ 0.172137149796092, 0.172137100044002, 0.172137113045018, 1.0 ],
                    "id": "obj-27",
                    "maxclass": "panel",
                    "mode": 1,
                    "numinlets": 1,
                    "numoutlets": 0,
                    "patching_rect": [ 300.0, 300.0, 128.0, 128.0 ],
                    "presentation": 1,
                    "presentation_rect": [ 0.0, 0.0, 390.21738386154175, 105.0 ],
                    "proportion": 0.5,
                    "rounded": 0
                }
            }
        ],
        "lines": [
            {
                "patchline": {
                    "destination": [ "obj-12", 0 ],
                    "order": 1,
                    "source": [ "obj-1", 0 ]
                }
            },
            {
                "patchline": {
                    "destination": [ "obj-28", 1 ],
                    "order": 0,
                    "source": [ "obj-1", 0 ]
                }
            },
            {
                "patchline": {
                    "destination": [ "obj-1", 0 ],
                    "order": 1,
                    "source": [ "obj-10", 0 ]
                }
            },
            {
                "patchline": {
                    "destination": [ "obj-41", 0 ],
                    "order": 0,
                    "source": [ "obj-10", 0 ]
                }
            },
            {
                "patchline": {
                    "destination": [ "obj-19", 0 ],
                    "source": [ "obj-11", 0 ]
                }
            },
            {
                "patchline": {
                    "destination": [ "obj-3", 1 ],
                    "source": [ "obj-12", 0 ]
                }
            },
            {
                "patchline": {
                    "destination": [ "obj-50", 0 ],
                    "source": [ "obj-12", 1 ]
                }
            },
            {
                "patchline": {
                    "destination": [ "obj-22", 0 ],
                    "source": [ "obj-14", 0 ]
                }
            },
            {
                "patchline": {
                    "destination": [ "obj-18", 1 ],
                    "source": [ "obj-15", 0 ]
                }
            },
            {
                "patchline": {
                    "destination": [ "obj-21", 0 ],
                    "source": [ "obj-16", 0 ]
                }
            },
            {
                "patchline": {
                    "destination": [ "obj-12", 2 ],
                    "order": 0,
                    "source": [ "obj-18", 0 ]
                }
            },
            {
                "patchline": {
                    "destination": [ "obj-2", 0 ],
                    "order": 3,
                    "source": [ "obj-18", 0 ]
                }
            },
            {
                "patchline": {
                    "destination": [ "obj-30", 0 ],
                    "order": 1,
                    "source": [ "obj-18", 0 ]
                }
            },
            {
                "patchline": {
                    "destination": [ "obj-49", 0 ],
                    "order": 2,
                    "source": [ "obj-18", 0 ]
                }
            },
            {
                "patchline": {
                    "destination": [ "obj-18", 0 ],
                    "source": [ "obj-19", 0 ]
                }
            },
            {
                "patchline": {
                    "destination": [ "obj-21", 0 ],
                    "source": [ "obj-19", 4 ]
                }
            },
            {
                "patchline": {
                    "destination": [ "obj-58", 0 ],
                    "source": [ "obj-19", 5 ]
                }
            },
            {
                "patchline": {
                    "destination": [ "obj-8", 0 ],
                    "source": [ "obj-2", 0 ]
                }
            },
            {
                "patchline": {
                    "destination": [ "obj-21", 0 ],
                    "source": [ "obj-20", 0 ]
                }
            },
            {
                "patchline": {
                    "destination": [ "obj-28", 0 ],
                    "source": [ "obj-21", 2 ]
                }
            },
            {
                "patchline": {
                    "destination": [ "obj-35", 0 ],
                    "source": [ "obj-21", 1 ]
                }
            },
            {
                "patchline": {
                    "destination": [ "obj-4", 0 ],
                    "source": [ "obj-21", 0 ]
                }
            },
            {
                "patchline": {
                    "destination": [ "obj-42", 0 ],
                    "source": [ "obj-21", 3 ]
                }
            },
            {
                "patchline": {
                    "destination": [ "obj-29", 1 ],
                    "source": [ "obj-22", 0 ]
                }
            },
            {
                "patchline": {
                    "destination": [ "obj-33", 0 ],
                    "source": [ "obj-23", 0 ]
                }
            },
            {
                "patchline": {
                    "destination": [ "obj-39", 1 ],
                    "source": [ "obj-23", 2 ]
                }
            },
            {
                "patchline": {
                    "destination": [ "obj-5", 0 ],
                    "source": [ "obj-24", 0 ]
                }
            },
            {
                "patchline": {
                    "destination": [ "obj-31", 0 ],
                    "source": [ "obj-25", 0 ]
                }
            },
            {
                "patchline": {
                    "destination": [ "obj-25", 0 ],
                    "source": [ "obj-28", 0 ]
                }
            },
            {
                "patchline": {
                    "destination": [ "obj-43", 0 ],
                    "source": [ "obj-29", 0 ]
                }
            },
            {
                "patchline": {
                    "destination": [ "obj-32", 0 ],
                    "source": [ "obj-3", 0 ]
                }
            },
            {
                "patchline": {
                    "destination": [ "obj-26", 0 ],
                    "source": [ "obj-30", 0 ]
                }
            },
            {
                "patchline": {
                    "destination": [ "obj-1", 0 ],
                    "source": [ "obj-31", 0 ]
                }
            },
            {
                "patchline": {
                    "destination": [ "obj-38", 0 ],
                    "source": [ "obj-33", 0 ]
                }
            },
            {
                "patchline": {
                    "destination": [ "obj-18", 0 ],
                    "source": [ "obj-35", 0 ]
                }
            },
            {
                "patchline": {
                    "destination": [ "obj-1", 0 ],
                    "source": [ "obj-37", 0 ]
                }
            },
            {
                "patchline": {
                    "destination": [ "obj-39", 0 ],
                    "source": [ "obj-38", 0 ]
                }
            },
            {
                "patchline": {
                    "destination": [ "obj-40", 1 ],
                    "source": [ "obj-39", 1 ]
                }
            },
            {
                "patchline": {
                    "destination": [ "obj-40", 0 ],
                    "source": [ "obj-39", 0 ]
                }
            },
            {
                "patchline": {
                    "destination": [ "obj-23", 0 ],
                    "source": [ "obj-4", 0 ]
                }
            },
            {
                "patchline": {
                    "destination": [ "obj-44", 0 ],
                    "source": [ "obj-40", 0 ]
                }
            },
            {
                "patchline": {
                    "destination": [ "obj-1", 0 ],
                    "source": [ "obj-42", 0 ]
                }
            },
            {
                "patchline": {
                    "destination": [ "obj-56", 0 ],
                    "source": [ "obj-43", 0 ]
                }
            },
            {
                "patchline": {
                    "destination": [ "obj-1", 0 ],
                    "source": [ "obj-44", 0 ]
                }
            },
            {
                "patchline": {
                    "destination": [ "obj-21", 0 ],
                    "source": [ "obj-46", 0 ]
                }
            },
            {
                "patchline": {
                    "destination": [ "obj-10", 0 ],
                    "order": 2,
                    "source": [ "obj-5", 0 ]
                }
            },
            {
                "patchline": {
                    "destination": [ "obj-14", 0 ],
                    "order": 1,
                    "source": [ "obj-5", 0 ]
                }
            },
            {
                "patchline": {
                    "destination": [ "obj-2", 0 ],
                    "order": 4,
                    "source": [ "obj-5", 0 ]
                }
            },
            {
                "patchline": {
                    "destination": [ "obj-37", 0 ],
                    "order": 3,
                    "source": [ "obj-5", 0 ]
                }
            },
            {
                "patchline": {
                    "destination": [ "obj-4", 1 ],
                    "order": 0,
                    "source": [ "obj-5", 0 ]
                }
            },
            {
                "patchline": {
                    "destination": [ "obj-22", 1 ],
                    "source": [ "obj-50", 0 ]
                }
            },
            {
                "patchline": {
                    "destination": [ "obj-1", 0 ],
                    "source": [ "obj-52", 0 ]
                }
            },
            {
                "patchline": {
                    "destination": [ "obj-24", 0 ],
                    "source": [ "obj-52", 1 ]
                }
            },
            {
                "patchline": {
                    "destination": [ "obj-15", 0 ],
                    "source": [ "obj-58", 0 ]
                }
            },
            {
                "patchline": {
                    "destination": [ "obj-52", 0 ],
                    "source": [ "obj-58", 1 ]
                }
            },
            {
                "patchline": {
                    "destination": [ "obj-29", 0 ],
                    "order": 0,
                    "source": [ "obj-8", 0 ]
                }
            },
            {
                "patchline": {
                    "destination": [ "obj-3", 0 ],
                    "order": 1,
                    "source": [ "obj-8", 0 ]
                }
            }
        ]
    }
}