{
    "patcher": {
        "fileversion": 1,
        "appversion": {
            "major": 9,
            "minor": 1,
            "revision": 2,
            "architecture": "x64",
            "modernui": 1
        },
        "classnamespace": "box",
        "rect": [ 34.0, 87.0, 1013.0, 779.0 ],
        "openinpresentation": 1,
        "boxes": [
            {
                "box": {
                    "id": "obj-11",
                    "maxclass": "newobj",
                    "numinlets": 1,
                    "numoutlets": 2,
                    "outlettype": [ "signal", "signal" ],
                    "patching_rect": [ 15.0, 90.0, 74.0, 22.0 ],
                    "text": "mc.unpack~"
                }
            },
            {
                "box": {
                    "id": "obj-10",
                    "maxclass": "newobj",
                    "numinlets": 3,
                    "numoutlets": 3,
                    "outlettype": [ "", "", "" ],
                    "patching_rect": [ 15.0, 60.0, 198.0, 22.0 ],
                    "text": "routepass multichannelsignal signal"
                }
            },
            {
                "box": {
                    "id": "obj-60",
                    "maxclass": "newobj",
                    "numinlets": 2,
                    "numoutlets": 1,
                    "outlettype": [ "signal" ],
                    "patching_rect": [ 15.0, 240.0, 40.0, 22.0 ],
                    "text": "*~ 0.5"
                }
            },
            {
                "box": {
                    "id": "obj-59",
                    "maxclass": "newobj",
                    "numinlets": 2,
                    "numoutlets": 1,
                    "outlettype": [ "signal" ],
                    "patching_rect": [ 15.0, 405.0, 40.0, 22.0 ],
                    "text": "*~ 0.5"
                }
            },
            {
                "box": {
                    "id": "obj-58",
                    "maxclass": "newobj",
                    "numinlets": 2,
                    "numoutlets": 1,
                    "outlettype": [ "signal" ],
                    "patching_rect": [ 15.0, 555.0, 40.0, 22.0 ],
                    "text": "*~ 0.5"
                }
            },
            {
                "box": {
                    "id": "obj-57",
                    "maxclass": "newobj",
                    "numinlets": 2,
                    "numoutlets": 1,
                    "outlettype": [ "float" ],
                    "patching_rect": [ 450.0, 120.0, 45.0, 22.0 ],
                    "text": "/ 1000."
                }
            },
            {
                "box": {
                    "id": "obj-56",
                    "maxclass": "newobj",
                    "numinlets": 2,
                    "numoutlets": 1,
                    "outlettype": [ "float" ],
                    "patching_rect": [ 360.0, 120.0, 45.0, 22.0 ],
                    "text": "/ 1000."
                }
            },
            {
                "box": {
                    "activebgcolor": [ 0.156862745098039, 0.156862745098039, 0.156862745098039, 0.0 ],
                    "activelinecolor": [ 1.0, 0.4, 0.3, 1.0 ],
                    "id": "obj-54",
                    "line_width": 3.0,
                    "maxclass": "live.scope~",
                    "numinlets": 2,
                    "numoutlets": 1,
                    "outlettype": [ "bang" ],
                    "patching_rect": [ 15.0, 585.0, 184.0, 68.0 ],
                    "presentation": 1,
                    "presentation_rect": [ 0.0, 20.0, 435.0, 100.0 ],
                    "saved_attribute_attributes": {
                        "activelinecolor": {
                            "expression": "themecolor.live_active_automation"
                        }
                    }
                }
            },
            {
                "box": {
                    "id": "obj-52",
                    "maxclass": "newobj",
                    "numinlets": 2,
                    "numoutlets": 1,
                    "outlettype": [ "signal" ],
                    "patching_rect": [ 285.0, 195.0, 64.0, 22.0 ],
                    "text": "minimum~"
                }
            },
            {
                "box": {
                    "bgmode": 0,
                    "border": 0,
                    "clickthrough": 0,
                    "enablehscroll": 0,
                    "enablevscroll": 0,
                    "id": "obj-51",
                    "lockeddragscroll": 0,
                    "lockedsize": 0,
                    "maxclass": "bpatcher",
                    "name": "slecm.envmeter~.maxpat",
                    "numinlets": 1,
                    "numoutlets": 0,
                    "offset": [ 0.0, 0.0 ],
                    "patching_rect": [ 285.0, 225.0, 45.0, 120.0 ],
                    "presentation": 1,
                    "presentation_rect": [ 435.0, 0.0, 45.0, 120.0 ],
                    "viewvisibility": 1
                }
            },
            {
                "box": {
                    "id": "obj-40",
                    "maxclass": "newobj",
                    "numinlets": 1,
                    "numoutlets": 1,
                    "outlettype": [ "bang" ],
                    "patching_rect": [ 435.0, 195.0, 22.0, 22.0 ],
                    "text": "t b"
                }
            },
            {
                "box": {
                    "bgcolor": [ 1.0, 1.0, 1.0, 0.0 ],
                    "fontsize": 10.0,
                    "format": 6,
                    "id": "obj-31",
                    "maxclass": "flonum",
                    "numinlets": 1,
                    "numoutlets": 2,
                    "outlettype": [ "", "bang" ],
                    "parameter_enable": 0,
                    "patching_rect": [ 720.0, 90.0, 45.0, 20.0 ],
                    "presentation": 1,
                    "presentation_rect": [ 405.0, 0.0, 45.0, 20.0 ],
                    "varname": "gain"
                }
            },
            {
                "box": {
                    "fontsize": 10.0,
                    "id": "obj-29",
                    "maxclass": "comment",
                    "numinlets": 1,
                    "numoutlets": 0,
                    "patching_rect": [ 675.0, 90.0, 45.0, 18.0 ],
                    "presentation": 1,
                    "presentation_rect": [ 360.0, 0.0, 45.0, 18.0 ],
                    "text": "gain:",
                    "textjustification": 2
                }
            },
            {
                "box": {
                    "bgcolor": [ 1.0, 1.0, 1.0, 0.0 ],
                    "fontsize": 10.0,
                    "format": 6,
                    "id": "obj-27",
                    "maxclass": "flonum",
                    "minimum": 1.0,
                    "numinlets": 1,
                    "numoutlets": 2,
                    "outlettype": [ "", "bang" ],
                    "parameter_enable": 0,
                    "patching_rect": [ 630.0, 90.0, 45.0, 20.0 ],
                    "presentation": 1,
                    "presentation_rect": [ 315.0, 0.0, 45.0, 20.0 ],
                    "varname": "ratio"
                }
            },
            {
                "box": {
                    "fontsize": 10.0,
                    "id": "obj-25",
                    "maxclass": "comment",
                    "numinlets": 1,
                    "numoutlets": 0,
                    "patching_rect": [ 585.0, 90.0, 45.0, 18.0 ],
                    "presentation": 1,
                    "presentation_rect": [ 270.0, 0.0, 45.0, 18.0 ],
                    "text": "ratio:",
                    "textjustification": 2
                }
            },
            {
                "box": {
                    "bgcolor": [ 1.0, 1.0, 1.0, 0.0 ],
                    "fontsize": 10.0,
                    "format": 6,
                    "id": "obj-23",
                    "maxclass": "flonum",
                    "maximum": 0.0,
                    "numinlets": 1,
                    "numoutlets": 2,
                    "outlettype": [ "", "bang" ],
                    "parameter_enable": 0,
                    "patching_rect": [ 540.0, 90.0, 45.0, 20.0 ],
                    "presentation": 1,
                    "presentation_rect": [ 225.0, 0.0, 45.0, 20.0 ],
                    "varname": "threshold"
                }
            },
            {
                "box": {
                    "fontsize": 10.0,
                    "id": "obj-21",
                    "maxclass": "comment",
                    "numinlets": 1,
                    "numoutlets": 0,
                    "patching_rect": [ 495.0, 90.0, 45.0, 18.0 ],
                    "presentation": 1,
                    "presentation_rect": [ 180.0, 0.0, 45.0, 18.0 ],
                    "text": "thrshld:",
                    "textjustification": 2
                }
            },
            {
                "box": {
                    "bgcolor": [ 1.0, 1.0, 1.0, 0.0 ],
                    "fontsize": 10.0,
                    "format": 6,
                    "id": "obj-19",
                    "maxclass": "flonum",
                    "minimum": 0.0,
                    "numinlets": 1,
                    "numoutlets": 2,
                    "outlettype": [ "", "bang" ],
                    "parameter_enable": 0,
                    "patching_rect": [ 450.0, 90.0, 45.0, 20.0 ],
                    "presentation": 1,
                    "presentation_rect": [ 135.0, 0.0, 45.0, 20.0 ],
                    "varname": "release"
                }
            },
            {
                "box": {
                    "fontsize": 10.0,
                    "id": "obj-17",
                    "maxclass": "comment",
                    "numinlets": 1,
                    "numoutlets": 0,
                    "patching_rect": [ 405.0, 90.0, 45.0, 18.0 ],
                    "presentation": 1,
                    "presentation_rect": [ 90.0, 0.0, 45.0, 18.0 ],
                    "text": "release:",
                    "textjustification": 2
                }
            },
            {
                "box": {
                    "bgcolor": [ 1.0, 1.0, 1.0, 0.0 ],
                    "fontsize": 10.0,
                    "format": 6,
                    "id": "obj-15",
                    "maxclass": "flonum",
                    "minimum": 0.0,
                    "numinlets": 1,
                    "numoutlets": 2,
                    "outlettype": [ "", "bang" ],
                    "parameter_enable": 0,
                    "patching_rect": [ 360.0, 90.0, 45.0, 20.0 ],
                    "presentation": 1,
                    "presentation_rect": [ 45.0, 0.0, 45.0, 20.0 ],
                    "varname": "attack"
                }
            },
            {
                "box": {
                    "fontsize": 10.0,
                    "id": "obj-13",
                    "maxclass": "comment",
                    "numinlets": 1,
                    "numoutlets": 0,
                    "patching_rect": [ 315.0, 90.0, 45.0, 18.0 ],
                    "presentation": 1,
                    "presentation_rect": [ 0.0, 0.0, 45.0, 18.0 ],
                    "text": "attack:",
                    "textjustification": 2
                }
            },
            {
                "box": {
                    "id": "obj-9",
                    "maxclass": "newobj",
                    "numinlets": 1,
                    "numoutlets": 4,
                    "outlettype": [ "", "", "", "" ],
                    "patching_rect": [ 540.0, 345.0, 56.0, 22.0 ],
                    "restore": {
                        "attack": [ 5.0 ],
                        "gain": [ 6.0 ],
                        "ratio": [ 4.0 ],
                        "release": [ 30.0 ],
                        "threshold": [ -6.0 ]
                    },
                    "text": "autopattr",
                    "varname": "u315005922"
                }
            },
            {
                "box": {
                    "id": "obj-7",
                    "maxclass": "newobj",
                    "numinlets": 1,
                    "numoutlets": 1,
                    "outlettype": [ "" ],
                    "patching_rect": [ 540.0, 315.0, 180.0, 22.0 ],
                    "saved_object_attributes": {
                        "client_rect": [ 600, 211, 1208, 534 ],
                        "parameter_enable": 0,
                        "parameter_mappable": 0,
                        "storage_rect": [ 583, 69, 1034, 197 ]
                    },
                    "text": "pattrstorage slecm.stereocomp~",
                    "varname": "slecm.stereocomp~"
                }
            },
            {
                "box": {
                    "id": "obj-6",
                    "maxclass": "newobj",
                    "numinlets": 6,
                    "numoutlets": 2,
                    "outlettype": [ "signal", "signal" ],
                    "patching_rect": [ 165.0, 135.0, 136.0, 22.0 ],
                    "text": "abl.device.compressor~"
                }
            },
            {
                "box": {
                    "id": "obj-5",
                    "maxclass": "newobj",
                    "numinlets": 6,
                    "numoutlets": 2,
                    "outlettype": [ "signal", "signal" ],
                    "patching_rect": [ 15.0, 135.0, 136.0, 22.0 ],
                    "text": "abl.device.compressor~"
                }
            },
            {
                "box": {
                    "comment": "right",
                    "id": "obj-4",
                    "index": 2,
                    "maxclass": "outlet",
                    "numinlets": 1,
                    "numoutlets": 0,
                    "patching_rect": [ 165.0, 180.0, 30.0, 30.0 ]
                }
            },
            {
                "box": {
                    "comment": "left",
                    "id": "obj-3",
                    "index": 1,
                    "maxclass": "outlet",
                    "numinlets": 1,
                    "numoutlets": 0,
                    "patching_rect": [ 15.0, 180.0, 30.0, 30.0 ]
                }
            },
            {
                "box": {
                    "comment": "right",
                    "id": "obj-2",
                    "index": 2,
                    "maxclass": "inlet",
                    "numinlets": 0,
                    "numoutlets": 1,
                    "outlettype": [ "" ],
                    "patching_rect": [ 165.0, 15.0, 30.0, 30.0 ]
                }
            },
            {
                "box": {
                    "comment": "left",
                    "id": "obj-1",
                    "index": 1,
                    "maxclass": "inlet",
                    "numinlets": 0,
                    "numoutlets": 1,
                    "outlettype": [ "" ],
                    "patching_rect": [ 15.0, 15.0, 30.0, 30.0 ]
                }
            },
            {
                "box": {
                    "activebgcolor": [ 0.156862745098039, 0.156862745098039, 0.156862745098039, 0.0 ],
                    "activelinecolor": [ 0.24313725490196078, 0.17254901960784313, 0.047058823529411764, 0.5 ],
                    "id": "obj-45",
                    "line_width": 2.0,
                    "maxclass": "live.scope~",
                    "numinlets": 2,
                    "numoutlets": 1,
                    "outlettype": [ "bang" ],
                    "patching_rect": [ 15.0, 270.0, 184.0, 68.0 ],
                    "presentation": 1,
                    "presentation_rect": [ 0.0, 20.0, 435.0, 100.0 ]
                }
            },
            {
                "box": {
                    "activebgcolor": [ 0.156862745098039, 0.156862745098039, 0.156862745098039, 0.0 ],
                    "activelinecolor": [ 1.0, 0.709803921568627, 0.196078431372549, 0.75 ],
                    "id": "obj-47",
                    "line_width": 2.0,
                    "maxclass": "live.scope~",
                    "numinlets": 2,
                    "numoutlets": 1,
                    "outlettype": [ "bang" ],
                    "patching_rect": [ 15.0, 435.0, 184.0, 68.0 ],
                    "presentation": 1,
                    "presentation_rect": [ 0.0, 20.0, 435.0, 100.0 ]
                }
            },
            {
                "box": {
                    "angle": 270.0,
                    "grad1": [ 0.125490196078431, 0.125490196078431, 0.125490196078431, 0.99 ],
                    "grad2": [ 0.172137149796092, 0.172137100044002, 0.172137113045018, 1.0 ],
                    "id": "obj-8",
                    "maxclass": "panel",
                    "mode": 1,
                    "numinlets": 1,
                    "numoutlets": 0,
                    "patching_rect": [ 525.0, 135.0, 128.0, 128.0 ],
                    "presentation": 1,
                    "presentation_rect": [ 0.0, 0.0, 480.0, 120.0 ],
                    "proportion": 0.5,
                    "rounded": 0
                }
            }
        ],
        "lines": [
            {
                "patchline": {
                    "destination": [ "obj-10", 0 ],
                    "source": [ "obj-1", 0 ]
                }
            },
            {
                "patchline": {
                    "destination": [ "obj-11", 0 ],
                    "source": [ "obj-10", 0 ]
                }
            },
            {
                "patchline": {
                    "destination": [ "obj-5", 0 ],
                    "order": 1,
                    "source": [ "obj-10", 1 ]
                }
            },
            {
                "patchline": {
                    "destination": [ "obj-60", 0 ],
                    "order": 0,
                    "source": [ "obj-10", 1 ]
                }
            },
            {
                "patchline": {
                    "destination": [ "obj-5", 0 ],
                    "order": 1,
                    "source": [ "obj-11", 0 ]
                }
            },
            {
                "patchline": {
                    "destination": [ "obj-6", 0 ],
                    "order": 0,
                    "source": [ "obj-11", 1 ]
                }
            },
            {
                "patchline": {
                    "destination": [ "obj-60", 0 ],
                    "order": 1,
                    "source": [ "obj-11", 1 ]
                }
            },
            {
                "patchline": {
                    "destination": [ "obj-60", 0 ],
                    "order": 0,
                    "source": [ "obj-11", 0 ]
                }
            },
            {
                "patchline": {
                    "destination": [ "obj-56", 0 ],
                    "source": [ "obj-15", 0 ]
                }
            },
            {
                "patchline": {
                    "destination": [ "obj-57", 0 ],
                    "source": [ "obj-19", 0 ]
                }
            },
            {
                "patchline": {
                    "destination": [ "obj-6", 0 ],
                    "order": 0,
                    "source": [ "obj-2", 0 ]
                }
            },
            {
                "patchline": {
                    "destination": [ "obj-60", 0 ],
                    "order": 1,
                    "source": [ "obj-2", 0 ]
                }
            },
            {
                "patchline": {
                    "destination": [ "obj-40", 0 ],
                    "order": 0,
                    "source": [ "obj-23", 0 ]
                }
            },
            {
                "patchline": {
                    "destination": [ "obj-5", 3 ],
                    "order": 2,
                    "source": [ "obj-23", 0 ]
                }
            },
            {
                "patchline": {
                    "destination": [ "obj-6", 3 ],
                    "order": 1,
                    "source": [ "obj-23", 0 ]
                }
            },
            {
                "patchline": {
                    "destination": [ "obj-40", 0 ],
                    "order": 0,
                    "source": [ "obj-27", 0 ]
                }
            },
            {
                "patchline": {
                    "destination": [ "obj-5", 4 ],
                    "order": 2,
                    "source": [ "obj-27", 0 ]
                }
            },
            {
                "patchline": {
                    "destination": [ "obj-6", 4 ],
                    "order": 1,
                    "source": [ "obj-27", 0 ]
                }
            },
            {
                "patchline": {
                    "destination": [ "obj-5", 5 ],
                    "order": 1,
                    "source": [ "obj-31", 0 ]
                }
            },
            {
                "patchline": {
                    "destination": [ "obj-6", 5 ],
                    "order": 0,
                    "source": [ "obj-31", 0 ]
                }
            },
            {
                "patchline": {
                    "destination": [ "obj-51", 0 ],
                    "source": [ "obj-40", 0 ]
                }
            },
            {
                "patchline": {
                    "destination": [ "obj-3", 0 ],
                    "order": 0,
                    "source": [ "obj-5", 0 ]
                }
            },
            {
                "patchline": {
                    "destination": [ "obj-52", 0 ],
                    "order": 0,
                    "source": [ "obj-5", 1 ]
                }
            },
            {
                "patchline": {
                    "destination": [ "obj-58", 0 ],
                    "order": 1,
                    "source": [ "obj-5", 1 ]
                }
            },
            {
                "patchline": {
                    "destination": [ "obj-59", 0 ],
                    "order": 1,
                    "source": [ "obj-5", 0 ]
                }
            },
            {
                "patchline": {
                    "destination": [ "obj-51", 0 ],
                    "source": [ "obj-52", 0 ]
                }
            },
            {
                "patchline": {
                    "destination": [ "obj-40", 0 ],
                    "order": 0,
                    "source": [ "obj-56", 0 ]
                }
            },
            {
                "patchline": {
                    "destination": [ "obj-5", 1 ],
                    "order": 2,
                    "source": [ "obj-56", 0 ]
                }
            },
            {
                "patchline": {
                    "destination": [ "obj-6", 1 ],
                    "order": 1,
                    "source": [ "obj-56", 0 ]
                }
            },
            {
                "patchline": {
                    "destination": [ "obj-40", 0 ],
                    "order": 0,
                    "source": [ "obj-57", 0 ]
                }
            },
            {
                "patchline": {
                    "destination": [ "obj-5", 2 ],
                    "order": 2,
                    "source": [ "obj-57", 0 ]
                }
            },
            {
                "patchline": {
                    "destination": [ "obj-6", 2 ],
                    "order": 1,
                    "source": [ "obj-57", 0 ]
                }
            },
            {
                "patchline": {
                    "destination": [ "obj-54", 0 ],
                    "source": [ "obj-58", 0 ]
                }
            },
            {
                "patchline": {
                    "destination": [ "obj-47", 0 ],
                    "source": [ "obj-59", 0 ]
                }
            },
            {
                "patchline": {
                    "destination": [ "obj-4", 0 ],
                    "order": 0,
                    "source": [ "obj-6", 0 ]
                }
            },
            {
                "patchline": {
                    "destination": [ "obj-52", 1 ],
                    "order": 0,
                    "source": [ "obj-6", 1 ]
                }
            },
            {
                "patchline": {
                    "destination": [ "obj-58", 0 ],
                    "order": 1,
                    "source": [ "obj-6", 1 ]
                }
            },
            {
                "patchline": {
                    "destination": [ "obj-59", 0 ],
                    "order": 1,
                    "source": [ "obj-6", 0 ]
                }
            },
            {
                "patchline": {
                    "destination": [ "obj-45", 0 ],
                    "source": [ "obj-60", 0 ]
                }
            }
        ]
    }
}