{
    "patcher": {
        "fileversion": 1,
        "appversion": {
            "major": 9,
            "minor": 1,
            "revision": 2,
            "architecture": "x64",
            "modernui": 1
        },
        "classnamespace": "box",
        "rect": [ 34.0, 87.0, 891.0, 779.0 ],
        "openinpresentation": 1,
        "integercoordinates": 1,
        "boxes": [
            {
                "box": {
                    "id": "obj-39",
                    "maxclass": "newobj",
                    "numinlets": 2,
                    "numoutlets": 1,
                    "outlettype": [ "signal" ],
                    "patching_rect": [ 808.0, 464.0, 30.0, 22.0 ],
                    "text": "*~"
                }
            },
            {
                "box": {
                    "id": "obj-38",
                    "maxclass": "newobj",
                    "numinlets": 2,
                    "numoutlets": 1,
                    "outlettype": [ "signal" ],
                    "patching_rect": [ 464.0, 554.0, 30.0, 22.0 ],
                    "text": "*~"
                }
            },
            {
                "box": {
                    "id": "obj-36",
                    "maxclass": "newobj",
                    "numinlets": 2,
                    "numoutlets": 1,
                    "outlettype": [ "signal" ],
                    "patching_rect": [ 585.0, 583.0, 30.0, 22.0 ],
                    "text": "*~"
                }
            },
            {
                "box": {
                    "id": "obj-35",
                    "maxclass": "newobj",
                    "numinlets": 2,
                    "numoutlets": 1,
                    "outlettype": [ "signal" ],
                    "patching_rect": [ 585.0, 554.0, 33.0, 22.0 ],
                    "text": ">~ 0"
                }
            },
            {
                "box": {
                    "id": "obj-33",
                    "maxclass": "newobj",
                    "numinlets": 2,
                    "numoutlets": 1,
                    "outlettype": [ "signal" ],
                    "patching_rect": [ 629.0, 554.0, 30.0, 22.0 ],
                    "text": "<=~"
                }
            },
            {
                "box": {
                    "id": "obj-28",
                    "maxclass": "newobj",
                    "numinlets": 1,
                    "numoutlets": 2,
                    "outlettype": [ "signal", "int" ],
                    "patching_rect": [ 703.0, 359.0, 41.0, 22.0 ],
                    "text": "what~"
                }
            },
            {
                "box": {
                    "id": "obj-25",
                    "maxclass": "newobj",
                    "numinlets": 6,
                    "numoutlets": 1,
                    "outlettype": [ "signal" ],
                    "patching_rect": [ 690.0, 524.0, 88.0, 22.0 ],
                    "text": "scale~ -1 1 0 1"
                }
            },
            {
                "box": {
                    "id": "obj-24",
                    "maxclass": "newobj",
                    "numinlets": 1,
                    "numoutlets": 1,
                    "outlettype": [ "signal" ],
                    "patching_rect": [ 690.0, 494.0, 44.0, 22.0 ],
                    "text": "noise~"
                }
            },
            {
                "box": {
                    "id": "obj-23",
                    "maxclass": "newobj",
                    "numinlets": 2,
                    "numoutlets": 1,
                    "outlettype": [ "signal" ],
                    "patching_rect": [ 690.0, 554.0, 35.0, 22.0 ],
                    "text": "sah~"
                }
            },
            {
                "box": {
                    "id": "obj-21",
                    "maxclass": "newobj",
                    "numinlets": 2,
                    "numoutlets": 2,
                    "outlettype": [ "", "" ],
                    "patching_rect": [ 585.0, 494.0, 45.0, 22.0 ],
                    "text": "zl.slice"
                }
            },
            {
                "box": {
                    "id": "obj-19",
                    "maxclass": "newobj",
                    "numinlets": 4,
                    "numoutlets": 2,
                    "outlettype": [ "signal", "signal" ],
                    "patching_rect": [ 585.0, 524.0, 100.0, 22.0 ],
                    "text": "stash~ @mode 2"
                }
            },
            {
                "box": {
                    "id": "obj-18",
                    "maxclass": "newobj",
                    "numinlets": 16,
                    "numoutlets": 1,
                    "outlettype": [ "" ],
                    "patching_rect": [ 585.0, 435.0, 241.0, 22.0 ],
                    "text": "pak 0. 0. 0. 0. 0. 0. 0. 0. 0. 0. 0. 0. 0. 0. 0. 0."
                }
            },
            {
                "box": {
                    "id": "obj-17",
                    "maxclass": "newobj",
                    "numinlets": 3,
                    "numoutlets": 1,
                    "outlettype": [ "" ],
                    "patching_rect": [ 585.0, 120.0, 52.0, 22.0 ],
                    "text": "pack l i i"
                }
            },
            {
                "box": {
                    "bgcolor": [ 0.125, 0.125, 0.125, 0.0 ],
                    "fontsize": 10.0,
                    "format": 6,
                    "id": "obj-16",
                    "maxclass": "flonum",
                    "maximum": 10.0,
                    "minimum": 0.0,
                    "numinlets": 1,
                    "numoutlets": 2,
                    "outlettype": [ "", "bang" ],
                    "parameter_enable": 0,
                    "patching_rect": [ 285.0, 525.0, 45.0, 20.0 ],
                    "presentation": 1,
                    "presentation_rect": [ 330.0, 175.0, 45.0, 20.0 ],
                    "varname": "range"
                }
            },
            {
                "box": {
                    "bgcolor": [ 0.125, 0.125, 0.125, 0.0 ],
                    "fontsize": 10.0,
                    "format": 6,
                    "id": "obj-15",
                    "maxclass": "flonum",
                    "maximum": 9.0,
                    "minimum": -1.0,
                    "numinlets": 1,
                    "numoutlets": 2,
                    "outlettype": [ "", "bang" ],
                    "parameter_enable": 0,
                    "patching_rect": [ 195.0, 525.0, 45.0, 20.0 ],
                    "presentation": 1,
                    "presentation_rect": [ 240.0, 175.0, 45.0, 20.0 ],
                    "varname": "octave"
                }
            },
            {
                "box": {
                    "fontsize": 10.0,
                    "id": "obj-14",
                    "maxclass": "comment",
                    "numinlets": 1,
                    "numoutlets": 0,
                    "patching_rect": [ 240.0, 525.0, 45.0, 18.0 ],
                    "presentation": 1,
                    "presentation_rect": [ 285.0, 175.0, 45.0, 18.0 ],
                    "text": "range:",
                    "textjustification": 2
                }
            },
            {
                "box": {
                    "fontsize": 10.0,
                    "id": "obj-13",
                    "maxclass": "comment",
                    "numinlets": 1,
                    "numoutlets": 0,
                    "patching_rect": [ 150.0, 525.0, 45.0, 18.0 ],
                    "presentation": 1,
                    "presentation_rect": [ 195.0, 175.0, 45.0, 18.0 ],
                    "text": "octave:",
                    "textjustification": 2
                }
            },
            {
                "box": {
                    "bgcolor": [ 0.172137149796092, 0.172137100044002, 0.172137113045018, 0.0 ],
                    "bgcolor2": [ 0.172137149796092, 0.172137100044002, 0.172137113045018, 1.0 ],
                    "bgfillcolor_angle": 270.0,
                    "bgfillcolor_autogradient": 0.0,
                    "bgfillcolor_color": [ 0.172137149796092, 0.172137100044002, 0.172137113045018, 0.0 ],
                    "bgfillcolor_color1": [ 0.172137149796092, 0.172137100044002, 0.172137113045018, 0.0 ],
                    "bgfillcolor_color2": [ 0.172137149796092, 0.172137100044002, 0.172137113045018, 1.0 ],
                    "bgfillcolor_proportion": 0.5,
                    "bgfillcolor_type": "gradient",
                    "fontsize": 10.0,
                    "gradient": 1,
                    "id": "obj-3",
                    "maxclass": "message",
                    "numinlets": 2,
                    "numoutlets": 1,
                    "outlettype": [ "" ],
                    "patching_rect": [ 675.0, 45.0, 30.0, 20.0 ],
                    "presentation": 1,
                    "presentation_rect": [ 90.0, 0.0, 45.0, 20.0 ],
                    "text": "clear",
                    "textjustification": 1
                }
            },
            {
                "box": {
                    "bgcolor": [ 0.172137149796092, 0.172137100044002, 0.172137113045018, 0.0 ],
                    "bgcolor2": [ 0.172137149796092, 0.172137100044002, 0.172137113045018, 1.0 ],
                    "bgfillcolor_angle": 270.0,
                    "bgfillcolor_autogradient": 0.0,
                    "bgfillcolor_color": [ 0.172137149796092, 0.172137100044002, 0.172137113045018, 0.0 ],
                    "bgfillcolor_color1": [ 0.172137149796092, 0.172137100044002, 0.172137113045018, 0.0 ],
                    "bgfillcolor_color2": [ 0.172137149796092, 0.172137100044002, 0.172137113045018, 1.0 ],
                    "bgfillcolor_proportion": 0.5,
                    "bgfillcolor_type": "gradient",
                    "fontsize": 10.0,
                    "gradient": 1,
                    "id": "obj-8",
                    "maxclass": "message",
                    "numinlets": 2,
                    "numoutlets": 1,
                    "outlettype": [ "" ],
                    "patching_rect": [ 600.0, 45.0, 42.0, 20.0 ],
                    "presentation": 1,
                    "presentation_rect": [ 0.0, 0.0, 45.0, 20.0 ],
                    "text": "random",
                    "textjustification": 1
                }
            },
            {
                "box": {
                    "id": "obj-171",
                    "maxclass": "newobj",
                    "numinlets": 1,
                    "numoutlets": 2,
                    "outlettype": [ "bang", "int" ],
                    "patching_rect": [ 582.0, 273.0, 29.5, 22.0 ],
                    "text": "t b i"
                }
            },
            {
                "box": {
                    "id": "obj-170",
                    "maxclass": "newobj",
                    "numinlets": 2,
                    "numoutlets": 2,
                    "outlettype": [ "", "" ],
                    "patching_rect": [ 464.0, 494.0, 45.0, 22.0 ],
                    "text": "zl.slice"
                }
            },
            {
                "box": {
                    "id": "obj-169",
                    "maxclass": "newobj",
                    "numinlets": 2,
                    "numoutlets": 2,
                    "outlettype": [ "", "" ],
                    "patching_rect": [ 360.0, 494.0, 45.0, 22.0 ],
                    "text": "zl.slice"
                }
            },
            {
                "box": {
                    "fontsize": 10.0,
                    "id": "obj-165",
                    "maxclass": "comment",
                    "numinlets": 1,
                    "numoutlets": 0,
                    "patching_rect": [ 150.0, 75.0, 130.0, 18.0 ],
                    "presentation": 1,
                    "presentation_rect": [ 195.0, 0.0, 45.0, 18.0 ],
                    "text": "steps: ",
                    "textjustification": 2
                }
            },
            {
                "box": {
                    "bgcolor": [ 0.125, 0.125, 0.125, 0.0 ],
                    "fontsize": 10.0,
                    "format": 6,
                    "id": "obj-163",
                    "maxclass": "flonum",
                    "maximum": 16.0,
                    "minimum": 1.0,
                    "numinlets": 1,
                    "numoutlets": 2,
                    "outlettype": [ "", "bang" ],
                    "parameter_enable": 0,
                    "patching_rect": [ 300.0, 73.0, 49.0, 20.0 ],
                    "presentation": 1,
                    "presentation_rect": [ 240.0, 0.0, 45.0, 20.0 ],
                    "varname": "steps"
                }
            },
            {
                "box": {
                    "id": "obj-162",
                    "maxclass": "newobj",
                    "numinlets": 7,
                    "numoutlets": 2,
                    "outlettype": [ "int", "" ],
                    "patching_rect": [ 808.0, 555.0, 82.0, 22.0 ],
                    "text": "midiformat"
                }
            },
            {
                "box": {
                    "id": "obj-161",
                    "maxclass": "newobj",
                    "numinlets": 2,
                    "numoutlets": 2,
                    "outlettype": [ "", "" ],
                    "patching_rect": [ 808.0, 525.0, 55.0, 22.0 ],
                    "text": "zl.slice 2"
                }
            },
            {
                "box": {
                    "comment": "MIDI",
                    "id": "obj-160",
                    "index": 3,
                    "maxclass": "outlet",
                    "numinlets": 1,
                    "numoutlets": 0,
                    "patching_rect": [ 808.0, 585.0, 30.0, 30.0 ]
                }
            },
            {
                "box": {
                    "id": "obj-159",
                    "maxclass": "newobj",
                    "numinlets": 3,
                    "numoutlets": 2,
                    "outlettype": [ "signal", "midievent" ],
                    "patching_rect": [ 808.0, 496.0, 90.0, 22.0 ],
                    "text": "mc.midiplayer~"
                }
            },
            {
                "box": {
                    "id": "obj-158",
                    "maxclass": "newobj",
                    "numinlets": 1,
                    "numoutlets": 1,
                    "outlettype": [ "signal" ],
                    "patching_rect": [ 360.0, 554.0, 39.0, 22.0 ],
                    "text": "mtof~"
                }
            },
            {
                "box": {
                    "comment": "gate",
                    "id": "obj-157",
                    "index": 2,
                    "maxclass": "outlet",
                    "numinlets": 1,
                    "numoutlets": 0,
                    "patching_rect": [ 464.0, 583.0, 30.0, 30.0 ]
                }
            },
            {
                "box": {
                    "comment": "freq",
                    "id": "obj-156",
                    "index": 1,
                    "maxclass": "outlet",
                    "numinlets": 1,
                    "numoutlets": 0,
                    "patching_rect": [ 360.0, 583.0, 30.0, 30.0 ]
                }
            },
            {
                "box": {
                    "id": "obj-155",
                    "maxclass": "newobj",
                    "numinlets": 4,
                    "numoutlets": 2,
                    "outlettype": [ "signal", "signal" ],
                    "patching_rect": [ 464.0, 524.0, 100.0, 22.0 ],
                    "text": "stash~ @mode 2"
                }
            },
            {
                "box": {
                    "id": "obj-154",
                    "maxclass": "newobj",
                    "numinlets": 16,
                    "numoutlets": 1,
                    "outlettype": [ "" ],
                    "patching_rect": [ 464.0, 389.0, 241.0, 22.0 ],
                    "text": "pak 0. 0. 0. 0. 0. 0. 0. 0. 0. 0. 0. 0. 0. 0. 0. 0."
                }
            },
            {
                "box": {
                    "id": "obj-153",
                    "maxclass": "newobj",
                    "numinlets": 16,
                    "numoutlets": 1,
                    "outlettype": [ "" ],
                    "patching_rect": [ 344.0, 448.0, 188.0, 22.0 ],
                    "text": "pak 0 0 0 0 0 0 0 0 0 0 0 0 0 0 0 0"
                }
            },
            {
                "box": {
                    "id": "obj-152",
                    "maxclass": "newobj",
                    "numinlets": 4,
                    "numoutlets": 2,
                    "outlettype": [ "signal", "signal" ],
                    "patching_rect": [ 360.0, 524.0, 100.0, 22.0 ],
                    "text": "stash~ @mode 2"
                }
            },
            {
                "box": {
                    "bgmode": 0,
                    "border": 0,
                    "clickthrough": 0,
                    "enablehscroll": 0,
                    "enablevscroll": 0,
                    "id": "obj-126",
                    "lockeddragscroll": 0,
                    "lockedsize": 0,
                    "maxclass": "bpatcher",
                    "name": "slecm.step_params.maxpat",
                    "numinlets": 1,
                    "numoutlets": 3,
                    "offset": [ 0.0, 0.0 ],
                    "outlettype": [ "", "float", "float" ],
                    "patching_rect": [ 393.75, 270.3125, 30.0, 60.0 ],
                    "presentation": 1,
                    "presentation_rect": [ 330.0, 105.0, 30.0, 60.0 ],
                    "varname": "slecm.step_params[15]",
                    "viewvisibility": 1
                }
            },
            {
                "box": {
                    "bgmode": 0,
                    "border": 0,
                    "clickthrough": 0,
                    "enablehscroll": 0,
                    "enablevscroll": 0,
                    "id": "obj-125",
                    "lockeddragscroll": 0,
                    "lockedsize": 0,
                    "maxclass": "bpatcher",
                    "name": "slecm.step_params.maxpat",
                    "numinlets": 1,
                    "numoutlets": 3,
                    "offset": [ 0.0, 0.0 ],
                    "outlettype": [ "", "float", "float" ],
                    "patching_rect": [ 348.4375, 270.3125, 30.0, 60.0 ],
                    "presentation": 1,
                    "presentation_rect": [ 285.0, 105.0, 30.0, 60.0 ],
                    "varname": "slecm.step_params[14]",
                    "viewvisibility": 1
                }
            },
            {
                "box": {
                    "bgmode": 0,
                    "border": 0,
                    "clickthrough": 0,
                    "enablehscroll": 0,
                    "enablevscroll": 0,
                    "id": "obj-122",
                    "lockeddragscroll": 0,
                    "lockedsize": 0,
                    "maxclass": "bpatcher",
                    "name": "slecm.step_params.maxpat",
                    "numinlets": 1,
                    "numoutlets": 3,
                    "offset": [ 0.0, 0.0 ],
                    "outlettype": [ "", "float", "float" ],
                    "patching_rect": [ 303.125, 270.3125, 30.0, 60.0 ],
                    "presentation": 1,
                    "presentation_rect": [ 240.0, 105.0, 30.0, 60.0 ],
                    "varname": "slecm.step_params[13]",
                    "viewvisibility": 1
                }
            },
            {
                "box": {
                    "bgmode": 0,
                    "border": 0,
                    "clickthrough": 0,
                    "enablehscroll": 0,
                    "enablevscroll": 0,
                    "id": "obj-121",
                    "lockeddragscroll": 0,
                    "lockedsize": 0,
                    "maxclass": "bpatcher",
                    "name": "slecm.step_params.maxpat",
                    "numinlets": 1,
                    "numoutlets": 3,
                    "offset": [ 0.0, 0.0 ],
                    "outlettype": [ "", "float", "float" ],
                    "patching_rect": [ 259.375, 270.3125, 30.0, 60.0 ],
                    "presentation": 1,
                    "presentation_rect": [ 195.0, 105.0, 30.0, 60.0 ],
                    "varname": "slecm.step_params[12]",
                    "viewvisibility": 1
                }
            },
            {
                "box": {
                    "bgmode": 0,
                    "border": 0,
                    "clickthrough": 0,
                    "enablehscroll": 0,
                    "enablevscroll": 0,
                    "id": "obj-118",
                    "lockeddragscroll": 0,
                    "lockedsize": 0,
                    "maxclass": "bpatcher",
                    "name": "slecm.step_params.maxpat",
                    "numinlets": 1,
                    "numoutlets": 3,
                    "offset": [ 0.0, 0.0 ],
                    "outlettype": [ "", "float", "float" ],
                    "patching_rect": [ 214.0625, 270.3125, 30.0, 60.0 ],
                    "presentation": 1,
                    "presentation_rect": [ 150.0, 105.0, 30.0, 60.0 ],
                    "varname": "slecm.step_params[11]",
                    "viewvisibility": 1
                }
            },
            {
                "box": {
                    "bgmode": 0,
                    "border": 0,
                    "clickthrough": 0,
                    "enablehscroll": 0,
                    "enablevscroll": 0,
                    "id": "obj-117",
                    "lockeddragscroll": 0,
                    "lockedsize": 0,
                    "maxclass": "bpatcher",
                    "name": "slecm.step_params.maxpat",
                    "numinlets": 1,
                    "numoutlets": 3,
                    "offset": [ 0.0, 0.0 ],
                    "outlettype": [ "", "float", "float" ],
                    "patching_rect": [ 168.75, 270.3125, 30.0, 60.0 ],
                    "presentation": 1,
                    "presentation_rect": [ 105.0, 105.0, 30.0, 60.0 ],
                    "varname": "slecm.step_params[10]",
                    "viewvisibility": 1
                }
            },
            {
                "box": {
                    "bgmode": 0,
                    "border": 0,
                    "clickthrough": 0,
                    "enablehscroll": 0,
                    "enablevscroll": 0,
                    "id": "obj-116",
                    "lockeddragscroll": 0,
                    "lockedsize": 0,
                    "maxclass": "bpatcher",
                    "name": "slecm.step_params.maxpat",
                    "numinlets": 1,
                    "numoutlets": 3,
                    "offset": [ 0.0, 0.0 ],
                    "outlettype": [ "", "float", "float" ],
                    "patching_rect": [ 123.4375, 270.3125, 30.0, 60.0 ],
                    "presentation": 1,
                    "presentation_rect": [ 60.0, 105.0, 30.0, 60.0 ],
                    "varname": "slecm.step_params[9]",
                    "viewvisibility": 1
                }
            },
            {
                "box": {
                    "bgmode": 0,
                    "border": 0,
                    "clickthrough": 0,
                    "enablehscroll": 0,
                    "enablevscroll": 0,
                    "id": "obj-115",
                    "lockeddragscroll": 0,
                    "lockedsize": 0,
                    "maxclass": "bpatcher",
                    "name": "slecm.step_params.maxpat",
                    "numinlets": 1,
                    "numoutlets": 3,
                    "offset": [ 0.0, 0.0 ],
                    "outlettype": [ "", "float", "float" ],
                    "patching_rect": [ 78.125, 270.3125, 30.0, 60.0 ],
                    "presentation": 1,
                    "presentation_rect": [ 15.0, 105.0, 30.0, 60.0 ],
                    "varname": "slecm.step_params[8]",
                    "viewvisibility": 1
                }
            },
            {
                "box": {
                    "bgmode": 0,
                    "border": 0,
                    "clickthrough": 0,
                    "enablehscroll": 0,
                    "enablevscroll": 0,
                    "id": "obj-114",
                    "lockeddragscroll": 0,
                    "lockedsize": 0,
                    "maxclass": "bpatcher",
                    "name": "slecm.step_params.maxpat",
                    "numinlets": 1,
                    "numoutlets": 3,
                    "offset": [ 0.0, 0.0 ],
                    "outlettype": [ "", "float", "float" ],
                    "patching_rect": [ 394.166657269001, 195.0, 40.83334273099899, 59.99999392032623 ],
                    "presentation": 1,
                    "presentation_rect": [ 330.0, 30.0, 30.0, 60.0 ],
                    "varname": "slecm.step_params[7]",
                    "viewvisibility": 1
                }
            },
            {
                "box": {
                    "bgmode": 0,
                    "border": 0,
                    "clickthrough": 0,
                    "enablehscroll": 0,
                    "enablevscroll": 0,
                    "id": "obj-113",
                    "lockeddragscroll": 0,
                    "lockedsize": 0,
                    "maxclass": "bpatcher",
                    "name": "slecm.step_params.maxpat",
                    "numinlets": 1,
                    "numoutlets": 3,
                    "offset": [ 0.0, 0.0 ],
                    "outlettype": [ "", "float", "float" ],
                    "patching_rect": [ 348.4375, 195.3125, 30.0, 60.0 ],
                    "presentation": 1,
                    "presentation_rect": [ 285.0, 30.0, 30.0, 60.0 ],
                    "varname": "slecm.step_params[6]",
                    "viewvisibility": 1
                }
            },
            {
                "box": {
                    "bgmode": 0,
                    "border": 0,
                    "clickthrough": 0,
                    "enablehscroll": 0,
                    "enablevscroll": 0,
                    "id": "obj-111",
                    "lockeddragscroll": 0,
                    "lockedsize": 0,
                    "maxclass": "bpatcher",
                    "name": "slecm.step_params.maxpat",
                    "numinlets": 1,
                    "numoutlets": 3,
                    "offset": [ 0.0, 0.0 ],
                    "outlettype": [ "", "float", "float" ],
                    "patching_rect": [ 303.125, 195.3125, 30.0, 60.0 ],
                    "presentation": 1,
                    "presentation_rect": [ 240.0, 30.0, 30.0, 60.0 ],
                    "varname": "slecm.step_params[5]",
                    "viewvisibility": 1
                }
            },
            {
                "box": {
                    "bgmode": 0,
                    "border": 0,
                    "clickthrough": 0,
                    "enablehscroll": 0,
                    "enablevscroll": 0,
                    "id": "obj-110",
                    "lockeddragscroll": 0,
                    "lockedsize": 0,
                    "maxclass": "bpatcher",
                    "name": "slecm.step_params.maxpat",
                    "numinlets": 1,
                    "numoutlets": 3,
                    "offset": [ 0.0, 0.0 ],
                    "outlettype": [ "", "float", "float" ],
                    "patching_rect": [ 259.375, 195.3125, 30.0, 60.0 ],
                    "presentation": 1,
                    "presentation_rect": [ 195.0, 30.0, 30.0, 60.0 ],
                    "varname": "slecm.step_params[4]",
                    "viewvisibility": 1
                }
            },
            {
                "box": {
                    "bgmode": 0,
                    "border": 0,
                    "clickthrough": 0,
                    "enablehscroll": 0,
                    "enablevscroll": 0,
                    "id": "obj-109",
                    "lockeddragscroll": 0,
                    "lockedsize": 0,
                    "maxclass": "bpatcher",
                    "name": "slecm.step_params.maxpat",
                    "numinlets": 1,
                    "numoutlets": 3,
                    "offset": [ 0.0, 0.0 ],
                    "outlettype": [ "", "float", "float" ],
                    "patching_rect": [ 214.0625, 195.3125, 30.0, 60.0 ],
                    "presentation": 1,
                    "presentation_rect": [ 150.0, 30.0, 30.0, 60.0 ],
                    "varname": "slecm.step_params[3]",
                    "viewvisibility": 1
                }
            },
            {
                "box": {
                    "bgmode": 0,
                    "border": 0,
                    "clickthrough": 0,
                    "enablehscroll": 0,
                    "enablevscroll": 0,
                    "id": "obj-108",
                    "lockeddragscroll": 0,
                    "lockedsize": 0,
                    "maxclass": "bpatcher",
                    "name": "slecm.step_params.maxpat",
                    "numinlets": 1,
                    "numoutlets": 3,
                    "offset": [ 0.0, 0.0 ],
                    "outlettype": [ "", "float", "float" ],
                    "patching_rect": [ 168.75, 195.3125, 30.0, 60.0 ],
                    "presentation": 1,
                    "presentation_rect": [ 105.0, 30.0, 30.0, 60.0 ],
                    "varname": "slecm.step_params[2]",
                    "viewvisibility": 1
                }
            },
            {
                "box": {
                    "bgmode": 0,
                    "border": 0,
                    "clickthrough": 0,
                    "enablehscroll": 0,
                    "enablevscroll": 0,
                    "id": "obj-107",
                    "lockeddragscroll": 0,
                    "lockedsize": 0,
                    "maxclass": "bpatcher",
                    "name": "slecm.step_params.maxpat",
                    "numinlets": 1,
                    "numoutlets": 3,
                    "offset": [ 0.0, 0.0 ],
                    "outlettype": [ "", "float", "float" ],
                    "patching_rect": [ 123.4375, 195.3125, 30.0, 60.0 ],
                    "presentation": 1,
                    "presentation_rect": [ 60.0, 30.0, 30.0, 60.0 ],
                    "varname": "slecm.step_params[1]",
                    "viewvisibility": 1
                }
            },
            {
                "box": {
                    "bgmode": 0,
                    "border": 0,
                    "clickthrough": 0,
                    "enablehscroll": 0,
                    "enablevscroll": 0,
                    "id": "obj-106",
                    "lockeddragscroll": 0,
                    "lockedsize": 0,
                    "maxclass": "bpatcher",
                    "name": "slecm.step_params.maxpat",
                    "numinlets": 1,
                    "numoutlets": 3,
                    "offset": [ 0.0, 0.0 ],
                    "outlettype": [ "", "float", "float" ],
                    "patching_rect": [ 78.0, 195.5, 40.0, 60.0 ],
                    "presentation": 1,
                    "presentation_rect": [ 15.0, 30.0, 30.0, 60.0 ],
                    "varname": "slecm.step_params",
                    "viewvisibility": 1
                }
            },
            {
                "box": {
                    "bgcolor": [ 0.172137149796092, 0.172137100044002, 0.172137113045018, 0.0 ],
                    "bgcolor2": [ 0.172137149796092, 0.172137100044002, 0.172137113045018, 1.0 ],
                    "bgfillcolor_angle": 270.0,
                    "bgfillcolor_autogradient": 0.0,
                    "bgfillcolor_color": [ 0.172137149796092, 0.172137100044002, 0.172137113045018, 0.0 ],
                    "bgfillcolor_color1": [ 0.172137149796092, 0.172137100044002, 0.172137113045018, 0.0 ],
                    "bgfillcolor_color2": [ 0.172137149796092, 0.172137100044002, 0.172137113045018, 1.0 ],
                    "bgfillcolor_proportion": 0.5,
                    "bgfillcolor_type": "gradient",
                    "fontsize": 10.0,
                    "gradient": 1,
                    "id": "obj-22",
                    "maxclass": "message",
                    "numinlets": 2,
                    "numoutlets": 1,
                    "outlettype": [ "" ],
                    "patching_rect": [ 645.0, 45.0, 31.0, 20.0 ],
                    "presentation": 1,
                    "presentation_rect": [ 45.0, 0.0, 45.0, 20.0 ],
                    "text": "reset",
                    "textjustification": 1
                }
            },
            {
                "box": {
                    "fontsize": 10.0,
                    "id": "obj-20",
                    "maxclass": "comment",
                    "numinlets": 1,
                    "numoutlets": 0,
                    "patching_rect": [ 364.0625, 75.0, 40.0, 18.0 ],
                    "presentation": 1,
                    "presentation_rect": [ 285.0, 0.0, 45.0, 18.0 ],
                    "text": "rate:",
                    "textjustification": 2
                }
            },
            {
                "box": {
                    "bgcolor": [ 0.125, 0.125, 0.125, 0.0 ],
                    "fontsize": 10.0,
                    "format": 6,
                    "id": "obj-5",
                    "maxclass": "flonum",
                    "numinlets": 1,
                    "numoutlets": 2,
                    "outlettype": [ "", "bang" ],
                    "parameter_enable": 0,
                    "patching_rect": [ 409.375, 75.0, 44.0, 20.0 ],
                    "presentation": 1,
                    "presentation_rect": [ 330.0, 0.0, 45.0, 20.0 ],
                    "varname": "rate"
                }
            },
            {
                "box": {
                    "id": "obj-4",
                    "maxclass": "newobj",
                    "numinlets": 2,
                    "numoutlets": 1,
                    "outlettype": [ "signal" ],
                    "patching_rect": [ 707.8125, 221.875, 36.0, 22.0 ],
                    "text": "rate~"
                }
            },
            {
                "box": {
                    "comment": "phasor",
                    "id": "obj-136",
                    "index": 1,
                    "maxclass": "inlet",
                    "numinlets": 0,
                    "numoutlets": 1,
                    "outlettype": [ "signal" ],
                    "patching_rect": [ 717.1875, 135.9375, 30.0, 30.0 ]
                }
            },
            {
                "box": {
                    "id": "obj-135",
                    "maxclass": "newobj",
                    "numinlets": 0,
                    "numoutlets": 1,
                    "outlettype": [ "" ],
                    "patching_rect": [ 30.0, 60.0, 69.0, 22.0 ],
                    "text": "r #0-step"
                }
            },
            {
                "box": {
                    "id": "obj-134",
                    "maxclass": "newobj",
                    "numinlets": 1,
                    "numoutlets": 0,
                    "patching_rect": [ 926.0, 236.0, 71.0, 22.0 ],
                    "text": "s #0-step"
                }
            },
            {
                "box": {
                    "id": "obj-132",
                    "maxclass": "newobj",
                    "numinlets": 1,
                    "numoutlets": 1,
                    "outlettype": [ "bang" ],
                    "patching_rect": [ 1000.0, 236.0, 22.0, 22.0 ],
                    "text": "t b"
                }
            },
            {
                "box": {
                    "id": "obj-131",
                    "maxclass": "newobj",
                    "numinlets": 2,
                    "numoutlets": 1,
                    "outlettype": [ "int" ],
                    "patching_rect": [ 926.0, 206.0, 30.0, 22.0 ],
                    "text": "i"
                }
            },
            {
                "box": {
                    "id": "obj-128",
                    "maxclass": "newobj",
                    "numinlets": 2,
                    "numoutlets": 2,
                    "outlettype": [ "bang", "" ],
                    "patching_rect": [ 986.0, 206.0, 34.0, 22.0 ],
                    "text": "sel 0"
                }
            },
            {
                "box": {
                    "id": "obj-127",
                    "maxclass": "newobj",
                    "numinlets": 1,
                    "numoutlets": 2,
                    "outlettype": [ "", "" ],
                    "patching_rect": [ 926.0, 147.0, 30.0, 22.0 ],
                    "text": "t l l"
                }
            },
            {
                "box": {
                    "id": "obj-124",
                    "maxclass": "newobj",
                    "numinlets": 2,
                    "numoutlets": 2,
                    "outlettype": [ "", "" ],
                    "patching_rect": [ 986.0, 175.0, 47.0, 22.0 ],
                    "text": "zl.nth 4"
                }
            },
            {
                "box": {
                    "id": "obj-123",
                    "maxclass": "newobj",
                    "numinlets": 2,
                    "numoutlets": 2,
                    "outlettype": [ "", "" ],
                    "patching_rect": [ 926.0, 175.0, 47.0, 22.0 ],
                    "text": "zl.nth 3"
                }
            },
            {
                "box": {
                    "id": "obj-120",
                    "maxclass": "newobj",
                    "numinlets": 2,
                    "numoutlets": 1,
                    "outlettype": [ "signal" ],
                    "patching_rect": [ 867.0, 147.0, 33.0, 22.0 ],
                    "text": "+~ 1"
                }
            },
            {
                "box": {
                    "id": "obj-119",
                    "maxclass": "newobj",
                    "numinlets": 3,
                    "numoutlets": 2,
                    "outlettype": [ "signal", "midievent" ],
                    "patching_rect": [ 825.0, 225.0, 90.0, 22.0 ],
                    "text": "mc.midiplayer~"
                }
            },
            {
                "box": {
                    "id": "obj-112",
                    "maxclass": "newobj",
                    "numinlets": 17,
                    "numoutlets": 17,
                    "outlettype": [ "", "", "", "", "", "", "", "", "", "", "", "", "", "", "", "", "" ],
                    "patching_rect": [ 36.375, 121.0, 242.0, 22.0 ],
                    "text": "route 1 2 3 4 5 6 7 8 9 10 11 12 13 14 15 16"
                }
            },
            {
                "box": {
                    "id": "obj-104",
                    "maxclass": "newobj",
                    "numinlets": 3,
                    "numoutlets": 1,
                    "outlettype": [ "signal" ],
                    "patching_rect": [ 707.8125, 303.125, 117.0, 22.0 ],
                    "text": "pong~ @mode wrap"
                }
            },
            {
                "box": {
                    "id": "obj-103",
                    "maxclass": "newobj",
                    "numinlets": 2,
                    "numoutlets": 1,
                    "outlettype": [ "signal" ],
                    "patching_rect": [ 707.8125, 273.4375, 29.5, 22.0 ],
                    "text": "*~"
                }
            },
            {
                "box": {
                    "angle": 270.0,
                    "grad1": [ 0.125, 0.125, 0.125, 1.0 ],
                    "grad2": [ 0.172137149796092, 0.172137100044002, 0.172137113045018, 1.0 ],
                    "id": "obj-151",
                    "maxclass": "panel",
                    "mode": 1,
                    "numinlets": 1,
                    "numoutlets": 0,
                    "patching_rect": [ 1076.5625, 45.3125, 128.0, 128.0 ],
                    "presentation": 1,
                    "presentation_rect": [ 0.0, 0.0, 375.33334451913834, 195.0 ],
                    "proportion": 0.5,
                    "rounded": 0
                }
            }
        ],
        "lines": [
            {
                "patchline": {
                    "destination": [ "obj-104", 0 ],
                    "order": 1,
                    "source": [ "obj-103", 0 ]
                }
            },
            {
                "patchline": {
                    "destination": [ "obj-120", 0 ],
                    "order": 0,
                    "source": [ "obj-103", 0 ]
                }
            },
            {
                "patchline": {
                    "destination": [ "obj-119", 0 ],
                    "order": 0,
                    "source": [ "obj-104", 0 ]
                }
            },
            {
                "patchline": {
                    "destination": [ "obj-28", 0 ],
                    "order": 2,
                    "source": [ "obj-104", 0 ]
                }
            },
            {
                "patchline": {
                    "destination": [ "obj-39", 0 ],
                    "order": 1,
                    "source": [ "obj-104", 0 ]
                }
            },
            {
                "patchline": {
                    "destination": [ "obj-153", 0 ],
                    "source": [ "obj-106", 0 ]
                }
            },
            {
                "patchline": {
                    "destination": [ "obj-154", 0 ],
                    "source": [ "obj-106", 1 ]
                }
            },
            {
                "patchline": {
                    "destination": [ "obj-18", 0 ],
                    "source": [ "obj-106", 2 ]
                }
            },
            {
                "patchline": {
                    "destination": [ "obj-153", 1 ],
                    "source": [ "obj-107", 0 ]
                }
            },
            {
                "patchline": {
                    "destination": [ "obj-154", 1 ],
                    "source": [ "obj-107", 1 ]
                }
            },
            {
                "patchline": {
                    "destination": [ "obj-18", 1 ],
                    "source": [ "obj-107", 2 ]
                }
            },
            {
                "patchline": {
                    "destination": [ "obj-153", 2 ],
                    "source": [ "obj-108", 0 ]
                }
            },
            {
                "patchline": {
                    "destination": [ "obj-154", 2 ],
                    "source": [ "obj-108", 1 ]
                }
            },
            {
                "patchline": {
                    "destination": [ "obj-18", 2 ],
                    "source": [ "obj-108", 2 ]
                }
            },
            {
                "patchline": {
                    "destination": [ "obj-153", 3 ],
                    "source": [ "obj-109", 0 ]
                }
            },
            {
                "patchline": {
                    "destination": [ "obj-154", 3 ],
                    "source": [ "obj-109", 1 ]
                }
            },
            {
                "patchline": {
                    "destination": [ "obj-18", 3 ],
                    "source": [ "obj-109", 2 ]
                }
            },
            {
                "patchline": {
                    "destination": [ "obj-153", 4 ],
                    "source": [ "obj-110", 0 ]
                }
            },
            {
                "patchline": {
                    "destination": [ "obj-154", 4 ],
                    "source": [ "obj-110", 1 ]
                }
            },
            {
                "patchline": {
                    "destination": [ "obj-18", 4 ],
                    "source": [ "obj-110", 2 ]
                }
            },
            {
                "patchline": {
                    "destination": [ "obj-153", 5 ],
                    "source": [ "obj-111", 0 ]
                }
            },
            {
                "patchline": {
                    "destination": [ "obj-154", 5 ],
                    "source": [ "obj-111", 1 ]
                }
            },
            {
                "patchline": {
                    "destination": [ "obj-18", 5 ],
                    "source": [ "obj-111", 2 ]
                }
            },
            {
                "patchline": {
                    "destination": [ "obj-106", 0 ],
                    "order": 14,
                    "source": [ "obj-112", 16 ]
                }
            },
            {
                "patchline": {
                    "destination": [ "obj-106", 0 ],
                    "source": [ "obj-112", 0 ]
                }
            },
            {
                "patchline": {
                    "destination": [ "obj-107", 0 ],
                    "order": 0,
                    "source": [ "obj-112", 16 ]
                }
            },
            {
                "patchline": {
                    "destination": [ "obj-107", 0 ],
                    "source": [ "obj-112", 1 ]
                }
            },
            {
                "patchline": {
                    "destination": [ "obj-108", 0 ],
                    "order": 1,
                    "source": [ "obj-112", 16 ]
                }
            },
            {
                "patchline": {
                    "destination": [ "obj-108", 0 ],
                    "source": [ "obj-112", 2 ]
                }
            },
            {
                "patchline": {
                    "destination": [ "obj-109", 0 ],
                    "order": 2,
                    "source": [ "obj-112", 16 ]
                }
            },
            {
                "patchline": {
                    "destination": [ "obj-109", 0 ],
                    "source": [ "obj-112", 3 ]
                }
            },
            {
                "patchline": {
                    "destination": [ "obj-110", 0 ],
                    "order": 3,
                    "source": [ "obj-112", 16 ]
                }
            },
            {
                "patchline": {
                    "destination": [ "obj-110", 0 ],
                    "source": [ "obj-112", 4 ]
                }
            },
            {
                "patchline": {
                    "destination": [ "obj-111", 0 ],
                    "order": 4,
                    "source": [ "obj-112", 16 ]
                }
            },
            {
                "patchline": {
                    "destination": [ "obj-111", 0 ],
                    "source": [ "obj-112", 5 ]
                }
            },
            {
                "patchline": {
                    "destination": [ "obj-113", 0 ],
                    "order": 5,
                    "source": [ "obj-112", 16 ]
                }
            },
            {
                "patchline": {
                    "destination": [ "obj-113", 0 ],
                    "source": [ "obj-112", 6 ]
                }
            },
            {
                "patchline": {
                    "destination": [ "obj-114", 0 ],
                    "order": 15,
                    "source": [ "obj-112", 16 ]
                }
            },
            {
                "patchline": {
                    "destination": [ "obj-114", 0 ],
                    "source": [ "obj-112", 7 ]
                }
            },
            {
                "patchline": {
                    "destination": [ "obj-115", 0 ],
                    "order": 6,
                    "source": [ "obj-112", 16 ]
                }
            },
            {
                "patchline": {
                    "destination": [ "obj-115", 0 ],
                    "source": [ "obj-112", 8 ]
                }
            },
            {
                "patchline": {
                    "destination": [ "obj-116", 0 ],
                    "order": 7,
                    "source": [ "obj-112", 16 ]
                }
            },
            {
                "patchline": {
                    "destination": [ "obj-116", 0 ],
                    "source": [ "obj-112", 9 ]
                }
            },
            {
                "patchline": {
                    "destination": [ "obj-117", 0 ],
                    "order": 8,
                    "source": [ "obj-112", 16 ]
                }
            },
            {
                "patchline": {
                    "destination": [ "obj-117", 0 ],
                    "source": [ "obj-112", 10 ]
                }
            },
            {
                "patchline": {
                    "destination": [ "obj-118", 0 ],
                    "order": 9,
                    "source": [ "obj-112", 16 ]
                }
            },
            {
                "patchline": {
                    "destination": [ "obj-118", 0 ],
                    "source": [ "obj-112", 11 ]
                }
            },
            {
                "patchline": {
                    "destination": [ "obj-121", 0 ],
                    "order": 10,
                    "source": [ "obj-112", 16 ]
                }
            },
            {
                "patchline": {
                    "destination": [ "obj-121", 0 ],
                    "source": [ "obj-112", 12 ]
                }
            },
            {
                "patchline": {
                    "destination": [ "obj-122", 0 ],
                    "order": 11,
                    "source": [ "obj-112", 16 ]
                }
            },
            {
                "patchline": {
                    "destination": [ "obj-122", 0 ],
                    "source": [ "obj-112", 13 ]
                }
            },
            {
                "patchline": {
                    "destination": [ "obj-125", 0 ],
                    "order": 12,
                    "source": [ "obj-112", 16 ]
                }
            },
            {
                "patchline": {
                    "destination": [ "obj-125", 0 ],
                    "source": [ "obj-112", 14 ]
                }
            },
            {
                "patchline": {
                    "destination": [ "obj-126", 0 ],
                    "order": 13,
                    "source": [ "obj-112", 16 ]
                }
            },
            {
                "patchline": {
                    "destination": [ "obj-126", 0 ],
                    "source": [ "obj-112", 15 ]
                }
            },
            {
                "patchline": {
                    "destination": [ "obj-153", 6 ],
                    "source": [ "obj-113", 0 ]
                }
            },
            {
                "patchline": {
                    "destination": [ "obj-154", 6 ],
                    "source": [ "obj-113", 1 ]
                }
            },
            {
                "patchline": {
                    "destination": [ "obj-18", 6 ],
                    "source": [ "obj-113", 2 ]
                }
            },
            {
                "patchline": {
                    "destination": [ "obj-153", 7 ],
                    "source": [ "obj-114", 0 ]
                }
            },
            {
                "patchline": {
                    "destination": [ "obj-154", 7 ],
                    "source": [ "obj-114", 1 ]
                }
            },
            {
                "patchline": {
                    "destination": [ "obj-18", 7 ],
                    "source": [ "obj-114", 2 ]
                }
            },
            {
                "patchline": {
                    "destination": [ "obj-153", 8 ],
                    "source": [ "obj-115", 0 ]
                }
            },
            {
                "patchline": {
                    "destination": [ "obj-154", 8 ],
                    "source": [ "obj-115", 1 ]
                }
            },
            {
                "patchline": {
                    "destination": [ "obj-18", 8 ],
                    "source": [ "obj-115", 2 ]
                }
            },
            {
                "patchline": {
                    "destination": [ "obj-153", 9 ],
                    "source": [ "obj-116", 0 ]
                }
            },
            {
                "patchline": {
                    "destination": [ "obj-154", 9 ],
                    "source": [ "obj-116", 1 ]
                }
            },
            {
                "patchline": {
                    "destination": [ "obj-18", 9 ],
                    "source": [ "obj-116", 2 ]
                }
            },
            {
                "patchline": {
                    "destination": [ "obj-153", 10 ],
                    "source": [ "obj-117", 0 ]
                }
            },
            {
                "patchline": {
                    "destination": [ "obj-154", 10 ],
                    "source": [ "obj-117", 1 ]
                }
            },
            {
                "patchline": {
                    "destination": [ "obj-18", 10 ],
                    "source": [ "obj-117", 2 ]
                }
            },
            {
                "patchline": {
                    "destination": [ "obj-153", 11 ],
                    "source": [ "obj-118", 0 ]
                }
            },
            {
                "patchline": {
                    "destination": [ "obj-154", 11 ],
                    "source": [ "obj-118", 1 ]
                }
            },
            {
                "patchline": {
                    "destination": [ "obj-18", 11 ],
                    "source": [ "obj-118", 2 ]
                }
            },
            {
                "patchline": {
                    "destination": [ "obj-127", 0 ],
                    "source": [ "obj-119", 1 ]
                }
            },
            {
                "patchline": {
                    "destination": [ "obj-119", 1 ],
                    "source": [ "obj-120", 0 ]
                }
            },
            {
                "patchline": {
                    "destination": [ "obj-153", 12 ],
                    "source": [ "obj-121", 0 ]
                }
            },
            {
                "patchline": {
                    "destination": [ "obj-154", 12 ],
                    "source": [ "obj-121", 1 ]
                }
            },
            {
                "patchline": {
                    "destination": [ "obj-18", 12 ],
                    "source": [ "obj-121", 2 ]
                }
            },
            {
                "patchline": {
                    "destination": [ "obj-153", 13 ],
                    "source": [ "obj-122", 0 ]
                }
            },
            {
                "patchline": {
                    "destination": [ "obj-154", 13 ],
                    "source": [ "obj-122", 1 ]
                }
            },
            {
                "patchline": {
                    "destination": [ "obj-18", 13 ],
                    "source": [ "obj-122", 2 ]
                }
            },
            {
                "patchline": {
                    "destination": [ "obj-131", 1 ],
                    "source": [ "obj-123", 0 ]
                }
            },
            {
                "patchline": {
                    "destination": [ "obj-128", 0 ],
                    "source": [ "obj-124", 0 ]
                }
            },
            {
                "patchline": {
                    "destination": [ "obj-153", 14 ],
                    "source": [ "obj-125", 0 ]
                }
            },
            {
                "patchline": {
                    "destination": [ "obj-154", 14 ],
                    "source": [ "obj-125", 1 ]
                }
            },
            {
                "patchline": {
                    "destination": [ "obj-18", 14 ],
                    "source": [ "obj-125", 2 ]
                }
            },
            {
                "patchline": {
                    "destination": [ "obj-153", 15 ],
                    "source": [ "obj-126", 0 ]
                }
            },
            {
                "patchline": {
                    "destination": [ "obj-154", 15 ],
                    "source": [ "obj-126", 1 ]
                }
            },
            {
                "patchline": {
                    "destination": [ "obj-18", 15 ],
                    "source": [ "obj-126", 2 ]
                }
            },
            {
                "patchline": {
                    "destination": [ "obj-123", 0 ],
                    "source": [ "obj-127", 1 ]
                }
            },
            {
                "patchline": {
                    "destination": [ "obj-124", 0 ],
                    "source": [ "obj-127", 0 ]
                }
            },
            {
                "patchline": {
                    "destination": [ "obj-132", 0 ],
                    "source": [ "obj-128", 1 ]
                }
            },
            {
                "patchline": {
                    "destination": [ "obj-134", 0 ],
                    "source": [ "obj-131", 0 ]
                }
            },
            {
                "patchline": {
                    "destination": [ "obj-131", 0 ],
                    "source": [ "obj-132", 0 ]
                }
            },
            {
                "patchline": {
                    "destination": [ "obj-112", 0 ],
                    "source": [ "obj-135", 0 ]
                }
            },
            {
                "patchline": {
                    "destination": [ "obj-4", 0 ],
                    "source": [ "obj-136", 0 ]
                }
            },
            {
                "patchline": {
                    "destination": [ "obj-17", 1 ],
                    "source": [ "obj-15", 0 ]
                }
            },
            {
                "patchline": {
                    "destination": [ "obj-158", 0 ],
                    "order": 1,
                    "source": [ "obj-152", 0 ]
                }
            },
            {
                "patchline": {
                    "destination": [ "obj-159", 1 ],
                    "order": 0,
                    "source": [ "obj-152", 0 ]
                }
            },
            {
                "patchline": {
                    "destination": [ "obj-169", 0 ],
                    "source": [ "obj-153", 0 ]
                }
            },
            {
                "patchline": {
                    "destination": [ "obj-170", 0 ],
                    "source": [ "obj-154", 0 ]
                }
            },
            {
                "patchline": {
                    "destination": [ "obj-159", 2 ],
                    "order": 0,
                    "source": [ "obj-155", 0 ]
                }
            },
            {
                "patchline": {
                    "destination": [ "obj-38", 0 ],
                    "order": 1,
                    "source": [ "obj-155", 0 ]
                }
            },
            {
                "patchline": {
                    "destination": [ "obj-156", 0 ],
                    "source": [ "obj-158", 0 ]
                }
            },
            {
                "patchline": {
                    "destination": [ "obj-161", 0 ],
                    "source": [ "obj-159", 1 ]
                }
            },
            {
                "patchline": {
                    "destination": [ "obj-17", 2 ],
                    "source": [ "obj-16", 0 ]
                }
            },
            {
                "patchline": {
                    "destination": [ "obj-162", 0 ],
                    "source": [ "obj-161", 1 ]
                }
            },
            {
                "patchline": {
                    "destination": [ "obj-160", 0 ],
                    "source": [ "obj-162", 0 ]
                }
            },
            {
                "patchline": {
                    "destination": [ "obj-103", 1 ],
                    "order": 0,
                    "source": [ "obj-163", 0 ]
                }
            },
            {
                "patchline": {
                    "destination": [ "obj-171", 0 ],
                    "order": 1,
                    "source": [ "obj-163", 0 ]
                }
            },
            {
                "patchline": {
                    "destination": [ "obj-152", 0 ],
                    "source": [ "obj-169", 0 ]
                }
            },
            {
                "patchline": {
                    "destination": [ "obj-112", 0 ],
                    "source": [ "obj-17", 0 ]
                }
            },
            {
                "patchline": {
                    "destination": [ "obj-155", 0 ],
                    "source": [ "obj-170", 0 ]
                }
            },
            {
                "patchline": {
                    "destination": [ "obj-169", 1 ],
                    "order": 2,
                    "source": [ "obj-171", 1 ]
                }
            },
            {
                "patchline": {
                    "destination": [ "obj-169", 0 ],
                    "order": 2,
                    "source": [ "obj-171", 0 ]
                }
            },
            {
                "patchline": {
                    "destination": [ "obj-170", 1 ],
                    "order": 1,
                    "source": [ "obj-171", 1 ]
                }
            },
            {
                "patchline": {
                    "destination": [ "obj-170", 0 ],
                    "order": 1,
                    "source": [ "obj-171", 0 ]
                }
            },
            {
                "patchline": {
                    "destination": [ "obj-21", 1 ],
                    "order": 0,
                    "source": [ "obj-171", 1 ]
                }
            },
            {
                "patchline": {
                    "destination": [ "obj-21", 0 ],
                    "order": 0,
                    "source": [ "obj-171", 0 ]
                }
            },
            {
                "patchline": {
                    "destination": [ "obj-21", 0 ],
                    "source": [ "obj-18", 0 ]
                }
            },
            {
                "patchline": {
                    "destination": [ "obj-33", 1 ],
                    "order": 0,
                    "source": [ "obj-19", 0 ]
                }
            },
            {
                "patchline": {
                    "destination": [ "obj-35", 0 ],
                    "order": 1,
                    "source": [ "obj-19", 0 ]
                }
            },
            {
                "patchline": {
                    "destination": [ "obj-19", 0 ],
                    "source": [ "obj-21", 0 ]
                }
            },
            {
                "patchline": {
                    "destination": [ "obj-4", 0 ],
                    "source": [ "obj-22", 0 ]
                }
            },
            {
                "patchline": {
                    "destination": [ "obj-33", 0 ],
                    "source": [ "obj-23", 0 ]
                }
            },
            {
                "patchline": {
                    "destination": [ "obj-25", 0 ],
                    "source": [ "obj-24", 0 ]
                }
            },
            {
                "patchline": {
                    "destination": [ "obj-23", 0 ],
                    "source": [ "obj-25", 0 ]
                }
            },
            {
                "patchline": {
                    "destination": [ "obj-23", 1 ],
                    "source": [ "obj-28", 0 ]
                }
            },
            {
                "patchline": {
                    "destination": [ "obj-112", 0 ],
                    "source": [ "obj-3", 0 ]
                }
            },
            {
                "patchline": {
                    "destination": [ "obj-36", 1 ],
                    "source": [ "obj-33", 0 ]
                }
            },
            {
                "patchline": {
                    "destination": [ "obj-36", 0 ],
                    "source": [ "obj-35", 0 ]
                }
            },
            {
                "patchline": {
                    "destination": [ "obj-38", 1 ],
                    "order": 1,
                    "source": [ "obj-36", 0 ]
                }
            },
            {
                "patchline": {
                    "destination": [ "obj-39", 1 ],
                    "order": 0,
                    "source": [ "obj-36", 0 ]
                }
            },
            {
                "patchline": {
                    "destination": [ "obj-157", 0 ],
                    "source": [ "obj-38", 0 ]
                }
            },
            {
                "patchline": {
                    "destination": [ "obj-159", 0 ],
                    "source": [ "obj-39", 0 ]
                }
            },
            {
                "patchline": {
                    "destination": [ "obj-103", 0 ],
                    "order": 0,
                    "source": [ "obj-4", 0 ]
                }
            },
            {
                "patchline": {
                    "destination": [ "obj-152", 2 ],
                    "order": 3,
                    "source": [ "obj-4", 0 ]
                }
            },
            {
                "patchline": {
                    "destination": [ "obj-155", 2 ],
                    "order": 2,
                    "source": [ "obj-4", 0 ]
                }
            },
            {
                "patchline": {
                    "destination": [ "obj-19", 2 ],
                    "order": 1,
                    "source": [ "obj-4", 0 ]
                }
            },
            {
                "patchline": {
                    "destination": [ "obj-4", 1 ],
                    "source": [ "obj-5", 0 ]
                }
            },
            {
                "patchline": {
                    "destination": [ "obj-17", 0 ],
                    "source": [ "obj-8", 0 ]
                }
            }
        ]
    }
}